<svg xmlns="http://www.w3.org/2000/svg" width="44" height="45" fill="none"><g fill="#2A2925" clip-path="url(#a)"><path d="M15.889 11.769a6.111 6.111 0 0 1 12.222 0v3.398h2.444v-3.398a8.557 8.557 0 0 0-17.11 0v3.398h2.444z"/><path d="M30.556 15.167v3.789a1.222 1.222 0 1 1-2.445 0v-3.79H15.89v3.79a1.222 1.222 0 0 1-2.445 0v-3.79H4.89v24.445a2.444 2.444 0 0 0 2.444 2.445h29.334a2.444 2.444 0 0 0 2.444-2.445V15.167z"/></g><defs><clipPath id="a"><path fill="#fff" d="M0 .5h44v44H0z"/></clipPath></defs></svg>