<svg width="28" height="37" viewBox="0 0 28 37" fill="none" xmlns="http://www.w3.org/2000/svg">
<path d="M14.1592 0.5C17.7819 0.5 21.2567 1.94895 23.8184 4.52734C26.3798 7.10571 27.8193 10.6028 27.8193 14.249C27.8192 20.7434 24.0173 26.5141 20.8271 30.21C18.8186 32.5253 16.5847 34.6326 14.1592 36.5C11.7333 34.6303 9.49934 32.5209 7.49121 30.2031C4.30105 26.5145 0.500109 20.7434 0.5 14.249C0.5 10.6027 1.9394 7.10572 4.50098 4.52734C7.06255 1.94903 10.5366 0.500083 14.1592 0.5ZM14.1592 9.70996C11.707 9.71013 9.71875 11.6981 9.71875 14.1504C9.71891 16.6025 11.7071 18.5907 14.1592 18.5908C16.6114 18.5908 18.5994 16.6026 18.5996 14.1504C18.5996 11.698 16.6115 9.70996 14.1592 9.70996Z" fill="#FEFFF5"/>
</svg>
