<svg width="45" height="44" viewBox="0 0 45 44" fill="none" xmlns="http://www.w3.org/2000/svg">
<path d="M4.6582 1H40.3418C41.1271 1 41.8826 1.29266 42.4619 1.81738L42.5752 1.9248C43.1674 2.517 43.5 3.32072 43.5 4.1582V39.8418C43.5 40.6793 43.1674 41.483 42.5752 42.0752C41.983 42.6674 41.1793 43 40.3418 43H4.6582C3.87289 43 3.11739 42.7073 2.53809 42.1826L2.4248 42.0752C1.83261 41.483 1.5 40.6793 1.5 39.8418V4.1582C1.5 3.37289 1.79266 2.61739 2.31738 2.03809L2.4248 1.9248C3.017 1.33261 3.82072 1 4.6582 1Z" stroke="#FEFFF5" stroke-width="2"/>
<path d="M22.4977 12.9919C20.7192 12.9944 18.9813 13.5239 17.5035 14.5136C16.0258 15.5032 14.8744 16.9086 14.195 18.5522C13.5155 20.1958 13.3384 22.0039 13.686 23.7481C14.0335 25.4924 14.8902 27.0945 16.1478 28.3521C17.4054 29.6097 19.0075 30.4664 20.7518 30.8139C22.496 31.1615 24.3041 30.9844 25.9477 30.3049C27.5913 29.6255 28.9967 28.4741 29.9863 26.9964C30.976 25.5186 31.5055 23.7807 31.508 22.0022C31.508 19.6125 30.5587 17.3207 28.8689 15.631C27.1792 13.9412 24.8874 12.9919 22.4977 12.9919Z" stroke="#FEFFF5" stroke-width="2"/>
<path d="M33.2343 13.5466C34.4599 13.5466 35.4534 12.553 35.4534 11.3274C35.4534 10.1018 34.4599 9.10828 33.2343 9.10828C32.0087 9.10828 31.0151 10.1018 31.0151 11.3274C31.0151 12.553 32.0087 13.5466 33.2343 13.5466Z" fill="#FEFFF5"/>
</svg>
