<svg width="143" height="79" viewBox="0 0 143 79" fill="none" xmlns="http://www.w3.org/2000/svg">
<path d="M0 0H13.2697V0.399924H10.3908C10.48 1.1839 10.6761 1.95216 10.9736 2.68355L19.1324 26.3196L27.2912 2.48069C27.4314 2.15042 27.5047 1.79589 27.5069 1.43741C27.4952 0.695519 26.7493 0.399924 25.5779 0.399924H22.9088V0H31.9184V0.399924C29.0046 0.399924 28.4218 0.979523 27.7633 2.82845L16.4109 35.9989H15.4493L2.55837 0.399924H0V0Z" fill="#FEFFF5"/>
<path d="M41.7904 12.3684C47.7056 12.3684 50.0367 15.1273 50.0367 19.0106C50.0523 20.2471 49.7642 21.4687 49.1975 22.5694H37.6877V24.2096C37.6877 31.0373 38.7134 35.0191 43.935 35.0191C45.3186 35.0262 46.6508 34.498 47.6502 33.5463C48.6495 32.5946 49.2378 31.2938 49.2907 29.9187H49.7103C49.7103 32.6312 47.3792 35.9987 41.8371 35.9987C34.9662 35.9987 31.1199 32.5848 31.1199 24.2096C31.1199 16.1126 35.0827 12.3684 41.7904 12.3684ZM37.711 22.2216H42.6529C44.6111 22.2216 45.0773 20.8653 45.0773 18.6687C45.0773 15.3939 44.6577 12.7741 41.8137 12.7741C38.5269 12.7509 37.781 16.2981 37.6877 22.1926L37.711 22.2216Z" fill="#FEFFF5"/>
<path d="M70.6027 36.1904H57.6943V35.8716H60.6082V6.27728H57.6943V5.9585H67.6597V35.8716H70.5736L70.6027 36.1904Z" fill="#FEFFF5"/>
<path d="M92.556 12.7512H91.1982V12.3629H97.4396V12.7512H96.7811C95.7496 12.7512 95.1843 13.5337 94.5316 15.1914L86.7399 35.999H85.8949L77.5846 14.9537C77.0018 13.3946 76.4598 12.757 75.4283 12.757H74.9097V12.3687H86.8332V12.7512H83.5464C83.5181 13.5895 83.6795 14.4234 84.0184 15.1914L89.3216 28.0527L94.1528 15.0696C94.2733 14.7589 94.3365 14.429 94.3393 14.0959C94.3393 13.2961 93.7332 12.7512 92.556 12.7512Z" fill="#FEFFF5"/>
<path d="M113.058 12.7512C118.996 12.7512 121.339 15.4695 121.339 19.2949C121.352 20.5058 121.061 21.7009 120.494 22.7725H108.979V24.3896C108.979 31.1187 110.01 35.0368 115.249 35.0368C116.624 35.0596 117.955 34.55 118.96 33.6157C119.964 32.6814 120.565 31.3953 120.634 30.0291H121.059C121.059 32.701 118.728 36.0221 113.151 36.0221C106.228 36.0221 102.387 32.6547 102.387 24.4301C102.358 16.4317 106.339 12.7512 113.058 12.7512ZM108.979 22.4247H113.938C115.908 22.4247 116.374 21.0859 116.374 18.9471C116.374 15.7246 115.954 13.1511 113.099 13.1511C109.8 13.1106 109.048 16.6171 108.979 22.4247Z" fill="#FEFFF5"/>
<path d="M124.288 12.3514H124.958C128.594 12.3514 131.462 10.6126 133.816 6.55542H134.276V12.3514H139.282V12.7513H134.259V30.5508C134.259 33.275 135.028 34.95 137.336 34.95C137.743 34.9919 138.154 34.9143 138.517 34.7268C138.881 34.5394 139.181 34.2503 139.382 33.8951L139.69 34.04C138.869 35.4716 136.823 35.9991 133.956 35.9991C130.215 35.9991 127.499 34.8399 127.499 30.9334V12.7513H124.27L124.288 12.3514Z" fill="#FEFFF5"/>
<path d="M13.3397 72.9427H0V72.5718H3.22273V40.062H0V39.6853H13.3397V40.062H10.1169V72.5718H13.3397V72.9427ZM27.7341 77.2781C22.3901 75.0235 20.5893 72.0154 19.0275 68.3871L15.8048 60.5219C14.4469 57.3167 12.2382 55.6417 10.5948 55.5026L15.9621 49.1849C16.8742 48.0217 18.0218 47.0621 19.3306 46.3681L21.0148 45.319L15.4027 51.8279C17.6638 49.5095 20.6884 54.4767 22.6524 59.3627L25.7236 66.8975C28.7074 75.0119 33.9815 78.02 41.4584 78.9879C41.4293 78.9879 32.4255 79.2545 27.7341 77.2781Z" fill="#FEFFF5"/>
<path d="M41.377 49.3123C47.6127 49.3123 50.0662 52.0711 50.0662 55.9429C50.081 57.183 49.776 58.4062 49.1803 59.4958H37.0295V61.1303C37.0295 67.9522 38.1077 71.9224 43.609 71.9224C46.9425 71.9224 49.2503 69.3026 49.2503 66.8277H49.6932C49.6932 69.5403 47.2397 72.9019 41.4003 72.9019C34.1332 72.9019 30.1062 69.4939 30.1062 61.1303C30.1062 53.0507 34.2789 49.3123 41.377 49.3123ZM37.0295 59.1191H42.2337C44.2909 59.1191 44.7862 57.7686 44.7862 55.5719C44.7862 52.303 44.3433 49.689 41.3479 49.689C37.9095 49.689 37.1286 53.2361 37.0295 59.1191Z" fill="#FEFFF5"/>
<path d="M65.661 72.8442H53.5452V72.4501H56.1793V50.4253H53.5452V50.0486H60.9697L62.0245 56.8704H62.1644C62.5024 51.1266 65.0782 49.5327 67.724 49.5327C70.3698 49.5327 71.5062 51.2251 71.5062 52.8712C71.5062 56.0706 68.5923 57.8094 65.8067 58.0412L65.661 57.9485C66.1928 56.644 66.4563 55.2467 66.4361 53.8391C66.4361 52.338 65.8125 51.1092 65.2356 50.8774C64.5654 51.0165 62.7938 52.3843 62.5548 57.6007V72.4501H65.6668L65.661 72.8442Z" fill="#FEFFF5"/>
<path d="M86.0288 72.8441H74.5598V72.45H77.1648V50.3615H74.5598V49.9847H83.045L83.3772 54.4592C84.8924 50.8309 87.6431 49.5153 90.8192 49.5153C95.6503 49.5153 97.5968 51.2541 97.5968 56.9573V72.45H100.202V72.8268H88.7328V72.45H91.3378V53.6594C91.3378 51.4453 90.8192 50.3151 89.0067 50.3151C87.1069 50.3151 84.5952 51.9612 83.4121 55.5315V72.45H86.0171L86.0288 72.8441Z" fill="#FEFFF5"/>
<path d="M113.897 49.5153C120.051 49.5153 122.476 52.2394 122.476 56.0705C122.491 57.2956 122.192 58.5044 121.607 59.5829H109.631V61.2C109.631 67.9465 110.698 71.8762 116.129 71.8762C119.422 71.8762 121.701 69.2854 121.701 66.8395H122.138C122.138 69.5172 119.713 72.8441 113.944 72.8441C106.77 72.8441 102.795 69.4709 102.795 61.2C102.795 53.2073 106.916 49.5153 113.897 49.5153ZM109.631 59.212H114.771C116.805 59.212 117.289 57.8731 117.289 55.7344C117.289 52.5002 116.852 49.9384 113.897 49.9384C110.5 49.8804 109.725 53.3928 109.631 59.212Z" fill="#FEFFF5"/>
<path d="M137.324 72.9021H125.296V72.6008H128.029V45.2495H125.296V44.9539H134.62V72.6008H137.353L137.324 72.9021Z" fill="#FEFFF5"/>
<path d="M17.2092 47.7821C24.0971 41.5883 33.0525 38.1594 42.3384 38.1608C57.945 38.1608 58.5394 39.7605 70.5446 39.7605C84.5661 39.7605 87.4741 32.9502 105.989 38.7694C124.946 44.7276 128.874 41.3602 133.7 38.8563C136.281 37.5116 139.766 35.9583 142.348 35.4714C140.102 36.4463 137.982 37.6837 136.031 39.1577C131.572 42.4556 130.022 43.0004 126.362 43.9046C120.208 45.4289 113.384 44.3219 104.485 42.3918C97.1831 40.8153 92.2936 40.8675 88.9252 41.6036C84.5486 42.5599 79.6766 44.3857 70.8593 44.7102C65.5036 44.9073 60.043 44.7102 49.2967 42.189C42.1111 40.4908 28.8297 39.8242 17.2092 47.7821Z" fill="#FFBD4A"/>
</svg>
