<svg width="187" height="104" viewBox="0 0 187 104" fill="none" xmlns="http://www.w3.org/2000/svg">
<path d="M1.52588e-05 0H17.4322V0.525373H13.6503C13.7674 1.55527 14.025 2.56452 14.4158 3.52533L25.1339 34.5756L35.852 3.25883C36.0362 2.82497 36.1325 2.35923 36.1353 1.8883C36.12 0.913691 35.14 0.525373 33.6012 0.525373H30.0949V0H41.9307V0.525373C38.1028 0.525373 37.3372 1.28678 36.4721 3.71568L21.5587 47.2911H20.2955L3.3609 0.525373H1.52588e-05V0Z" fill="#131F2F"/>
<path d="M54.8996 16.2483C62.6702 16.2483 65.7325 19.8726 65.7325 24.974C65.753 26.5984 65.3746 28.2032 64.6301 29.6491H49.5099V31.8039C49.5099 40.7733 50.8573 46.0042 57.7169 46.0042C59.5345 46.0134 61.2846 45.3196 62.5974 44.0693C63.9103 42.819 64.6831 41.1102 64.7526 39.3038H65.3038C65.3038 42.8672 62.2415 47.2909 54.9608 47.2909C45.9347 47.2909 40.8819 42.8062 40.8819 31.8039C40.8819 21.167 46.0878 16.2483 54.8996 16.2483ZM49.5405 29.1922H56.0326C58.605 29.1922 59.2174 27.4106 59.2174 24.5248C59.2174 20.2228 58.6662 16.7813 54.9302 16.7813C50.6124 16.7508 49.6324 21.4106 49.5099 29.1542L49.5405 29.1922Z" fill="#131F2F"/>
<path d="M92.7496 47.5426H75.7921V47.1239H79.62V8.24629H75.7921V7.82751H88.8835V47.1239H92.7114L92.7496 47.5426Z" fill="#131F2F"/>
<path d="M121.589 16.7511H119.805V16.241H128.005V16.7511H127.14C125.784 16.7511 125.042 17.779 124.184 19.9566L113.949 47.2912H112.839L101.921 19.6445C101.156 17.5963 100.444 16.7587 99.0887 16.7587H98.4074V16.2486H114.071V16.7511H109.753C109.716 17.8523 109.928 18.9477 110.373 19.9566L117.34 36.8523L123.687 19.7967C123.845 19.3885 123.928 18.9551 123.932 18.5176C123.932 17.4668 123.136 16.7511 121.589 16.7511Z" fill="#131F2F"/>
<path d="M148.522 16.751C156.323 16.751 159.401 20.322 159.401 25.3473C159.417 26.9381 159.036 28.508 158.291 29.9157H143.163V32.0401C143.163 40.88 144.518 46.0272 151.401 46.0272C153.207 46.0571 154.955 45.3877 156.275 44.1603C157.595 42.9329 158.383 41.2434 158.475 39.4486H159.033C159.033 42.9587 155.971 47.3216 148.645 47.3216C139.55 47.3216 134.504 42.8978 134.504 32.0934C134.466 21.5859 139.695 16.751 148.522 16.751ZM143.163 29.4589H149.678C152.266 29.4589 152.878 27.7 152.878 24.8904C152.878 20.657 152.327 17.2763 148.576 17.2763C144.242 17.2231 143.255 21.8296 143.163 29.4589Z" fill="#131F2F"/>
<path d="M163.275 16.2258H164.155C168.932 16.2258 172.699 13.9416 175.792 8.61169H176.397V16.2258H182.973V16.7512H176.374V40.134C176.374 43.7127 177.384 45.9131 180.416 45.9131C180.951 45.9681 181.491 45.8662 181.968 45.62C182.445 45.3738 182.84 44.9939 183.103 44.5274L183.509 44.7177C182.429 46.5984 179.742 47.2913 175.976 47.2913C171.061 47.2913 167.493 45.7685 167.493 40.6366V16.7512H163.252L163.275 16.2258Z" fill="#131F2F"/>
<path d="M17.5241 95.8236H1.52588e-05V95.3363H4.23366V52.6288H1.52588e-05V52.1339H17.5241V52.6288H13.2904V95.3363H17.5241V95.8236ZM36.4338 101.519C29.4135 98.557 27.0479 94.6053 24.9961 89.8389L20.7625 79.5066C18.9787 75.296 16.0771 73.0955 13.9182 72.9128L20.9692 64.6134C22.1673 63.0853 23.6749 61.8246 25.3942 60.913L27.6067 59.5348L20.2342 68.0854C23.2047 65.0398 27.178 71.5651 29.758 77.9838L33.7926 87.8821C37.7124 98.5418 44.6408 102.494 54.4632 103.765C54.4249 103.765 42.5968 104.115 36.4338 101.519Z" fill="#131F2F"/>
<path d="M54.356 64.7806C62.5477 64.7806 65.7708 68.4049 65.7708 73.4912C65.7903 75.1203 65.3897 76.7273 64.6071 78.1586H48.6448V80.3058C48.6448 89.2676 50.0611 94.4832 57.2882 94.4832C61.6673 94.4832 64.699 91.0416 64.699 87.7904H65.2808C65.2808 91.3538 62.0577 95.77 54.3866 95.77C44.8399 95.77 39.5497 91.2929 39.5497 80.3058C39.5497 69.6917 45.0313 64.7806 54.356 64.7806ZM48.6448 77.6637H55.4814C58.1839 77.6637 58.8346 75.8896 58.8346 73.0039C58.8346 68.7095 58.2528 65.2756 54.3177 65.2756C49.8008 65.2756 48.775 69.9354 48.6448 77.6637Z" fill="#131F2F"/>
<path d="M86.2577 95.6942H70.3413V95.1764H73.8017V66.2429H70.3413V65.748H80.0948L81.4804 74.7098H81.6642C82.1082 67.1642 85.4921 65.0703 88.9678 65.0703C92.4435 65.0703 93.9364 67.2936 93.9364 69.456C93.9364 73.659 90.1085 75.9432 86.449 76.2478L86.2577 76.126C86.9562 74.4122 87.3024 72.5766 87.2759 70.7276C87.2759 68.7555 86.4567 67.1413 85.6988 66.8368C84.8184 67.0195 82.491 68.8164 82.1771 75.6691V95.1764H86.2653L86.2577 95.6942Z" fill="#131F2F"/>
<path d="M113.015 95.694H97.9481V95.1762H101.37V66.1589H97.9481V65.664H109.095L109.531 71.5421C111.522 66.7756 115.135 65.0472 119.308 65.0472C125.654 65.0472 128.211 67.3315 128.211 74.8237V95.1762H131.633V95.6711H116.567V95.1762H119.989V70.4913C119.989 67.5827 119.308 66.098 116.927 66.098C114.431 66.098 111.131 68.2604 109.577 72.9507V95.1762H112.999L113.015 95.694Z" fill="#131F2F"/>
<path d="M149.625 65.0472C157.709 65.0472 160.894 68.6259 160.894 73.6588C160.914 75.2682 160.521 76.8561 159.753 78.2729H144.021V80.3973C144.021 89.2601 145.422 94.4224 152.557 94.4224C156.882 94.4224 159.876 91.0189 159.876 87.8058H160.45C160.45 91.3235 157.265 95.694 149.686 95.694C140.262 95.694 135.04 91.2626 135.04 80.3973C135.04 69.8974 140.453 65.0472 149.625 65.0472ZM144.021 77.7856H150.773C153.445 77.7856 154.08 76.0268 154.08 73.2172C154.08 68.9685 153.506 65.6031 149.625 65.6031C145.161 65.5269 144.143 70.1411 144.021 77.7856Z" fill="#131F2F"/>
<path d="M180.401 95.7702H164.599V95.3743H168.19V59.4434H164.599V59.0551H176.848V95.3743H180.439L180.401 95.7702Z" fill="#131F2F"/>
<path d="M22.6075 62.7706C31.656 54.6338 43.4205 50.1295 55.6192 50.1312C76.1214 50.1312 76.9023 52.2327 92.6732 52.2327C111.093 52.2327 114.913 43.2861 139.236 50.9307C164.14 58.758 169.3 54.3342 175.639 51.0449C179.03 49.2784 183.608 47.2379 187 46.5983C184.05 47.8789 181.264 49.5045 178.701 51.4408C172.844 55.7732 170.808 56.489 166 57.6768C157.916 59.6793 148.951 58.225 137.26 55.6895C127.668 53.6185 121.245 53.687 116.82 54.654C111.07 55.9103 104.67 58.3087 93.0866 58.7351C86.051 58.994 78.8775 58.7351 64.7602 55.423C55.3207 53.1921 37.8732 52.3165 22.6075 62.7706Z" fill="#FFBD4A"/>
</svg>
