<svg width="28" height="37" viewBox="0 0 28 37" fill="none" xmlns="http://www.w3.org/2000/svg">
<path d="M14.2073 0.500061C17.83 0.500061 21.3048 1.949 23.8665 4.5274C26.428 7.10578 27.8674 10.6028 27.8674 14.2491C27.8673 20.7435 24.0654 26.5142 20.8752 30.21C18.8667 32.5254 16.6329 34.6326 14.2073 36.5001C11.7814 34.6304 9.54744 32.521 7.53931 30.2032C4.34912 26.5146 0.54818 20.7435 0.548096 14.2491C0.548096 10.6027 1.98748 7.1058 4.54907 4.5274C7.11065 1.94909 10.5847 0.500162 14.2073 0.500061ZM14.2073 9.71002C11.7551 9.71023 9.76685 11.6982 9.76685 14.1505C9.76697 16.6026 11.7552 18.5907 14.2073 18.5909C16.6596 18.5909 18.6476 16.6027 18.6477 14.1505C18.6477 11.6981 16.6596 9.71002 14.2073 9.71002Z" fill="#FF5B5B"/>
</svg>
