<svg width="35" height="30" viewBox="0 0 35 30" fill="none" xmlns="http://www.w3.org/2000/svg">
<path d="M12.9514 23.6449C14.5447 23.6451 16.0254 24.7957 16.0256 26.433C16.0256 28.0704 14.5449 29.2209 12.9514 29.2211C11.3578 29.2211 9.8772 28.0706 9.8772 26.433C9.87739 24.7956 11.3579 23.6449 12.9514 23.6449ZM27.7346 23.6449C29.3281 23.6449 30.8086 24.7956 30.8088 26.433C30.8088 28.0706 29.3282 29.2211 27.7346 29.2211C26.1411 29.2209 24.6604 28.0705 24.6604 26.433C24.6606 24.7956 26.1412 23.645 27.7346 23.6449ZM12.9514 25.2445C12.0329 25.2445 11.477 25.8743 11.4768 26.433C11.4768 26.9917 12.0327 27.6214 12.9514 27.6215C13.8699 27.6213 14.426 26.9916 14.426 26.433C14.4258 25.8744 13.8697 25.2447 12.9514 25.2445ZM27.7346 25.2445C26.8163 25.2446 26.2602 25.8744 26.26 26.433C26.26 26.9916 26.8161 27.6213 27.7346 27.6215C28.6533 27.6215 29.2092 26.9917 29.2092 26.433C29.209 25.8743 28.6531 25.2445 27.7346 25.2445ZM5.12329 0.789429C5.42671 0.840539 5.67902 1.06398 5.76196 1.36853L6.68481 4.75525H33.4211C33.6689 4.7554 33.9026 4.87059 34.054 5.06677C34.2053 5.26328 34.2578 5.5193 34.1946 5.75916L30.7825 18.684C30.6897 19.035 30.3721 19.2796 30.009 19.2797H10.6409L11.2874 21.6566H30.8088V23.2562H10.676C10.3605 23.256 10.0784 23.0717 9.94946 22.7924L9.90454 22.6674L4.37915 2.3783H0.778564V0.778687H4.99048L5.12329 0.789429ZM10.2043 17.6801H29.3928L32.3821 6.35486H7.12036L10.2043 17.6801Z" fill="#FEFFF5"/>
</svg>
