<svg xmlns="http://www.w3.org/2000/svg" style="display:none">
    <!-- right chevron symbol -->
    <symbol id="chevron-right" fill="none" viewBox="0 0 24 24" stroke-width="1.5" stroke="currentColor">
    <path stroke-linecap="square" stroke-linejoin="square" d="m8.25 4.5 7.5 7.5-7.5 7.5" />
    </symbol>
    <!-- double chevron up symbol -->
    <symbol id="dbl-chevron-up" fill="none" viewBox="0 0 24 24" stroke-width="1.5" stroke="currentColor">
        <path stroke-linecap="square" stroke-linejoin="square" d="m4.5 18.75 7.5-7.5 7.5 7.5" />
        <path stroke-linecap="square" stroke-linejoin="square" d="m4.5 12.75 7.5-7.5 7.5 7.5" />
    </symbol>
    <!-- three bars menu symbol -->
    <symbol id="three-bars-menu" fill="none" viewBox="0 0 24 24" stroke-width="1.5" stroke="currentColor">
        <path stroke-linecap="square" stroke-linejoin="square" d="M3.75 6.75h16.5M3.75 12h16.5m-16.5 5.25h16.5" />
    </symbol>
    <!-- stroked map pin symbol -->
    <symbol id="stroke-map-pin" fill="none" viewBox="0 0 24 24" stroke-width="1.3" stroke="currentColor">
        <path stroke-linecap="square" stroke-linejoin="square" d="M15 10.5a3 3 0 1 1-6 0 3 3 0 0 1 6 0Z" />
        <path stroke-linecap="square" stroke-linejoin="square" d="M19.5 10.5c0 7.142-7.5 11.25-7.5 11.25S4.5 17.642 4.5 10.5a7.5 7.5 0 1 1 15 0Z" />
    </symbol>
    <!-- filled map pin symbol -->
    <symbol id="fill-map-pin" viewBox="0 0 24 24" fill="currentColor">
        <path fill-rule="evenodd" d="m11.54 22.351.07.04.028.016a.76.76 0 0 0 .723 0l.028-.015.071-.041a16.975 16.975 0 0 0 1.144-.742 19.58 19.58 0 0 0 2.683-2.282c1.944-1.99 3.963-4.98 3.963-8.827a8.25 8.25 0 0 0-16.5 0c0 3.846 2.02 6.837 3.963 8.827a19.58 19.58 0 0 0 2.682 2.282 16.975 16.975 0 0 0 1.145.742ZM12 13.5a3 3 0 1 0 0-6 3 3 0 0 0 0 6Z" clip-rule="evenodd" />
    </symbol>
    <!-- stroke shopping bag symbol -->
    <symbol id="stroke-shopping-bag" fill="none" viewBox="0 0 24 24" stroke-width="1.3" stroke="currentColor">
        <path stroke-linecap="square" stroke-linejoin="square" d="M15.75 10.5V6a3.75 3.75 0 1 0-7.5 0v4.5m11.356-1.993 1.263 12c.07.665-.45 1.243-1.119 1.243H4.25a1.125 1.125 0 0 1-1.12-1.243l1.264-12A1.125 1.125 0 0 1 5.513 7.5h12.974c.576 0 1.059.435 1.119 1.007ZM8.625 10.5a.375.375 0 1 1-.75 0 .375.375 0 0 1 .75 0Zm7.5 0a.375.375 0 1 1-.75 0 .375.375 0 0 1 .75 0Z" />
    </symbol>
    <!-- distance marker symbol -->
    <symbol id="distance-marker" viewBox="0 0 27 8" fill="currentColor">
        <path stroke-linecap="square" stroke-linejoin="square"
            d="M22.9092 0C25.1183 4.84472e-05 26.9092 1.79089 26.9092 4C26.9092 6.20911 25.1183 7.99995 22.9092 8C20.8225 8 19.1094 6.40216 18.9258 4.36328H7.9834C7.79983 6.40216 6.08667 8 4 8C1.79086 8 0 6.20914 0 4C0 1.79086 1.79086 0 4 0C6.08634 0 7.79938 1.59732 7.9834 3.63574H18.9258C19.1098 1.59733 20.8228 0 22.9092 0ZM22.9092 0.727539C21.1017 0.727539 19.6367 2.19252 19.6367 4C19.6367 5.80748 21.1017 7.27246 22.9092 7.27246C24.7166 7.27241 26.1816 5.80745 26.1816 4C26.1816 2.19255 24.7166 0.727588 22.9092 0.727539Z" />
    </symbol> 
    <!-- x-mark symbol -->
    <symbol id="x-mark" fill="none" viewBox="0 0 24 24" stroke-width="1.8" stroke="currentColor">
    <path stroke-linecap="square" stroke-linejoin="square" d="M6 18 18 6M6 6l12 12" />
    </symbol>
    <!-- arrow-turn-up-right symbol -->
    <symbol id="turn-up-right-arrow" viewBox="0 0 20 20" fill="currentColor">
        <path fill-rule="evenodd"
        d="M3.75 17a.75.75 0 0 0 .75-.75v-7.5h10.94l-1.97 1.97a.75.75 0 1 0 1.06 1.06l3.25-3.25a.75.75 0 0 0 0-1.06l-3.25-3.25a.75.75 0 1 0-1.06 1.06l1.97 1.97H3.75A.75.75 0 0 0 3 8v8.25c0 .414.336.75.75.75Z"
        clip-rule="evenodd" />
    </symbol>
    <!-- star-rating symbols -->
    <symbol id="star-icon" viewBox="0 0 20 20" fill="currentColor">
        <path fill-rule="evenodd"
        d="M10.868 2.884c-.321-.772-1.415-.772-1.736 0l-1.83 4.401-4.753.381c-.833.067-1.171 1.107-.536 1.651l3.62 3.102-1.106 4.637c-.194.813.691 1.456 1.405 1.02L10 15.591l4.069 2.485c.713.436 1.598-.207 1.404-1.02l-1.106-4.637 3.62-3.102c.635-.544.297-1.584-.536-1.65l-4.752-.382-1.831-4.401Z"
        clip-rule="evenodd" />
    </symbol>
    <!-- zoom-in symbol -->
    <symbol id="zoom-in" viewBox="0 0 20 20" fill="currentColor">
        <path d="M10.75 4.75a.75.75 0 0 0-1.5 0v4.5h-4.5a.75.75 0 0 0 0 1.5h4.5v4.5a.75.75 0 0 0 1.5 0v-4.5h4.5a.75.75 0 0 0 0-1.5h-4.5v-4.5Z" />
    </symbol>
    <!-- zoom-out symbol -->
    <symbol id="zoom-out" viewBox="0 0 20 20" fill="currentColor">
        <path fill-rule="evenodd" d="M4 10a.75.75 0 0 1 .75-.75h10.5a.75.75 0 0 1 0 1.5H4.75A.75.75 0 0 1 4 10Z" clip-rule="evenodd" />
    </symbol>
</svg>