<svg width="46" height="39" viewBox="0 0 46 39" fill="none" xmlns="http://www.w3.org/2000/svg">
<path d="M7.57143 6.5H45L40.2857 24.375H12.7143M40.2857 29.875C29.8531 29.875 13.5714 29.875 13.5714 29.875L5.71429 1C5.71429 1 2.84104 1 1 1" stroke="#FEFFF5" stroke-width="1.6" stroke-linecap="square" stroke-linejoin="round"/>
<path d="M37.1429 38.125C38.8786 38.125 40.2857 36.8938 40.2857 35.375C40.2857 33.8562 38.8786 32.625 37.1429 32.625C35.4071 32.625 34 33.8562 34 35.375C34 36.8938 35.4071 38.125 37.1429 38.125Z" stroke="#FEFFF5" stroke-width="1.6" stroke-linecap="square" stroke-linejoin="round"/>
<path d="M16.7143 38.125C18.4501 38.125 19.8572 36.8938 19.8572 35.375C19.8572 33.8562 18.4501 32.625 16.7143 32.625C14.9785 32.625 13.5714 33.8562 13.5714 35.375C13.5714 36.8938 14.9785 38.125 16.7143 38.125Z" stroke="#FEFFF5" stroke-width="1.6" stroke-linecap="square" stroke-linejoin="round"/>
</svg>
