<svg width="27" height="8" viewBox="0 0 27 8" fill="none" xmlns="http://www.w3.org/2000/svg">
<path d="M22.9092 0C25.1183 4.84472e-05 26.9092 1.79089 26.9092 4C26.9092 6.20911 25.1183 7.99995 22.9092 8C20.8225 8 19.1094 6.40216 18.9258 4.36328H7.9834C7.79983 6.40216 6.08667 8 4 8C1.79086 8 0 6.20914 0 4C0 1.79086 1.79086 0 4 0C6.08634 0 7.79938 1.59732 7.9834 3.63574H18.9258C19.1098 1.59733 20.8228 0 22.9092 0ZM22.9092 0.727539C21.1017 0.727539 19.6367 2.19252 19.6367 4C19.6367 5.80748 21.1017 7.27246 22.9092 7.27246C24.7166 7.27241 26.1816 5.80745 26.1816 4C26.1816 2.19255 24.7166 0.727588 22.9092 0.727539Z" fill="#7E7E7E"/>
</svg>
