<svg width="47" height="46" viewBox="0 0 47 46" fill="none" xmlns="http://www.w3.org/2000/svg">
<path d="M23.5 45C20.6109 45 17.7501 44.431 15.081 43.3253C12.4118 42.2197 9.98654 40.5992 7.94365 38.5563C5.90076 36.5135 4.28025 34.0882 3.17465 31.419C2.06905 28.7499 1.5 25.8891 1.5 23C1.5 20.1109 2.06905 17.2501 3.17465 14.581C4.28025 11.9118 5.90076 9.48654 7.94365 7.44365C9.98654 5.40076 12.4118 3.78025 15.081 2.67465C17.7501 1.56905 20.6109 1 23.5 1C29.3348 1 34.9305 3.31785 39.0563 7.44365C43.1821 11.5695 45.5 17.1652 45.5 23C45.5 28.8348 43.1821 34.4305 39.0563 38.5563C34.9305 42.6821 29.3348 45 23.5 45ZM23.5 45V19.8571C23.5 18.1901 24.1622 16.5913 25.341 15.4125C26.5198 14.2337 28.1186 13.5714 29.7857 13.5714H31.3571M15.6429 26.1429H31.3571" stroke="#FEFFF5" stroke-width="2"/>
</svg>
