<svg width="203" height="120" viewBox="0 0 203 120" fill="none" xmlns="http://www.w3.org/2000/svg">
<g filter="url(#filter0_dd_47_9)">
<path d="M8.00002 2H25.4322V2.52537H21.6503C21.7674 3.55527 22.025 4.56452 22.4158 5.52533L33.1339 36.5756L43.852 5.25883C44.0362 4.82497 44.1325 4.35923 44.1353 3.8883C44.12 2.91369 43.14 2.52537 41.6012 2.52537H38.0949V2H49.9307V2.52537C46.1028 2.52537 45.3372 3.28678 44.4721 5.71568L29.5587 49.2911H28.2955L11.3609 2.52537H8.00002V2Z" fill="#131F2F"/>
<path d="M62.8996 18.2483C70.6702 18.2483 73.7325 21.8726 73.7325 26.974C73.753 28.5984 73.3746 30.2032 72.6301 31.6491H57.5099V33.8039C57.5099 42.7733 58.8573 48.0042 65.7169 48.0042C67.5345 48.0134 69.2846 47.3196 70.5974 46.0693C71.9103 44.819 72.6831 43.1102 72.7526 41.3038H73.3038C73.3038 44.8672 70.2415 49.2909 62.9608 49.2909C53.9347 49.2909 48.8819 44.8062 48.8819 33.8039C48.8819 23.167 54.0878 18.2483 62.8996 18.2483ZM57.5405 31.1922H64.0326C66.605 31.1922 67.2174 29.4106 67.2174 26.5248C67.2174 22.2228 66.6662 18.7813 62.9302 18.7813C58.6124 18.7508 57.6324 23.4106 57.5099 31.1542L57.5405 31.1922Z" fill="#131F2F"/>
<path d="M100.75 49.5426H83.7921V49.1239H87.62V10.2463H83.7921V9.82751H96.8835V49.1239H100.711L100.75 49.5426Z" fill="#131F2F"/>
<path d="M129.589 18.7511H127.805V18.241H136.005V18.7511H135.14C133.784 18.7511 133.042 19.779 132.184 21.9566L121.949 49.2912H120.839L109.921 21.6445C109.156 19.5963 108.444 18.7587 107.089 18.7587H106.407V18.2486H122.071V18.7511H117.753C117.716 19.8523 117.928 20.9477 118.373 21.9566L125.34 38.8523L131.687 21.7967C131.845 21.3885 131.928 20.9551 131.932 20.5176C131.932 19.4668 131.136 18.7511 129.589 18.7511Z" fill="#131F2F"/>
<path d="M156.522 18.751C164.323 18.751 167.401 22.322 167.401 27.3473C167.417 28.9381 167.036 30.508 166.291 31.9157H151.163V34.0401C151.163 42.88 152.518 48.0272 159.401 48.0272C161.207 48.0571 162.955 47.3877 164.275 46.1603C165.595 44.9329 166.383 43.2434 166.475 41.4486H167.033C167.033 44.9587 163.971 49.3216 156.645 49.3216C147.55 49.3216 142.504 44.8978 142.504 34.0934C142.466 23.5859 147.695 18.751 156.522 18.751ZM151.163 31.4589H157.678C160.266 31.4589 160.878 29.7 160.878 26.8904C160.878 22.657 160.327 19.2763 156.576 19.2763C152.242 19.2231 151.255 23.8296 151.163 31.4589Z" fill="#131F2F"/>
<path d="M171.275 18.2258H172.155C176.932 18.2258 180.699 15.9416 183.792 10.6117H184.397V18.2258H190.973V18.7512H184.374V42.134C184.374 45.7127 185.384 47.9131 188.416 47.9131C188.951 47.9681 189.491 47.8662 189.968 47.62C190.445 47.3738 190.84 46.9939 191.103 46.5274L191.509 46.7177C190.429 48.5984 187.742 49.2913 183.976 49.2913C179.061 49.2913 175.493 47.7685 175.493 42.6366V18.7512H171.252L171.275 18.2258Z" fill="#131F2F"/>
<path d="M25.5241 97.8236H8.00002V97.3363H12.2337V54.6288H8.00002V54.1339H25.5241V54.6288H21.2904V97.3363H25.5241V97.8236ZM44.4338 103.519C37.4135 100.557 35.0479 96.6053 32.9961 91.8389L28.7625 81.5066C26.9787 77.296 24.0771 75.0955 21.9182 74.9128L28.9692 66.6134C30.1673 65.0853 31.6749 63.8246 33.3942 62.913L35.6067 61.5348L28.2342 70.0854C31.2047 67.0398 35.178 73.5651 37.758 79.9838L41.7926 89.8821C45.7124 100.542 52.6408 104.494 62.4632 105.765C62.4249 105.765 50.5968 106.115 44.4338 103.519Z" fill="#131F2F"/>
<path d="M62.356 66.7806C70.5477 66.7806 73.7708 70.4049 73.7708 75.4912C73.7903 77.1203 73.3897 78.7273 72.6071 80.1586H56.6448V82.3058C56.6448 91.2676 58.0611 96.4832 65.2882 96.4832C69.6673 96.4832 72.699 93.0416 72.699 89.7904H73.2808C73.2808 93.3538 70.0577 97.77 62.3866 97.77C52.8399 97.77 47.5497 93.2929 47.5497 82.3058C47.5497 71.6917 53.0313 66.7806 62.356 66.7806ZM56.6448 79.6637H63.4814C66.1839 79.6637 66.8346 77.8896 66.8346 75.0039C66.8346 70.7095 66.2528 67.2756 62.3177 67.2756C57.8008 67.2756 56.775 71.9354 56.6448 79.6637Z" fill="#131F2F"/>
<path d="M94.2577 97.6942H78.3413V97.1764H81.8017V68.2429H78.3413V67.748H88.0948L89.4804 76.7098H89.6642C90.1082 69.1642 93.4921 67.0703 96.9678 67.0703C100.444 67.0703 101.936 69.2936 101.936 71.456C101.936 75.659 98.1085 77.9432 94.449 78.2478L94.2577 78.126C94.9562 76.4122 95.3024 74.5766 95.2759 72.7276C95.2759 70.7555 94.4567 69.1413 93.6988 68.8368C92.8184 69.0195 90.491 70.8164 90.1771 77.6691V97.1764H94.2653L94.2577 97.6942Z" fill="#131F2F"/>
<path d="M121.015 97.694H105.948V97.1762H109.37V68.1589H105.948V67.664H117.095L117.531 73.5421C119.522 68.7756 123.135 67.0472 127.308 67.0472C133.654 67.0472 136.211 69.3315 136.211 76.8237V97.1762H139.633V97.6711H124.567V97.1762H127.989V72.4913C127.989 69.5827 127.308 68.098 124.927 68.098C122.431 68.098 119.131 70.2604 117.577 74.9507V97.1762H120.999L121.015 97.694Z" fill="#131F2F"/>
<path d="M157.625 67.0472C165.709 67.0472 168.894 70.6259 168.894 75.6588C168.914 77.2682 168.521 78.8561 167.753 80.2729H152.021V82.3973C152.021 91.2601 153.422 96.4224 160.557 96.4224C164.882 96.4224 167.876 93.0189 167.876 89.8058H168.45C168.45 93.3235 165.265 97.694 157.686 97.694C148.262 97.694 143.04 93.2626 143.04 82.3973C143.04 71.8974 148.453 67.0472 157.625 67.0472ZM152.021 79.7856H158.773C161.445 79.7856 162.08 78.0268 162.08 75.2172C162.08 70.9685 161.506 67.6031 157.625 67.6031C153.161 67.5269 152.143 72.1411 152.021 79.7856Z" fill="#131F2F"/>
<path d="M188.401 97.7702H172.599V97.3743H176.19V61.4434H172.599V61.0551H184.848V97.3743H188.439L188.401 97.7702Z" fill="#131F2F"/>
<path d="M30.6075 64.7706C39.656 56.6338 51.4205 52.1295 63.6192 52.1312C84.1214 52.1312 84.9023 54.2327 100.673 54.2327C119.093 54.2327 122.913 45.2861 147.236 52.9307C172.14 60.758 177.3 56.3342 183.639 53.0449C187.03 51.2784 191.608 49.2379 195 48.5983C192.05 49.8789 189.264 51.5045 186.701 53.4408C180.844 57.7732 178.808 58.489 174 59.6768C165.916 61.6793 156.951 60.225 145.26 57.6895C135.668 55.6185 129.245 55.687 124.82 56.654C119.07 57.9103 112.67 60.3087 101.087 60.7351C94.051 60.994 86.8775 60.7351 72.7602 57.423C63.3207 55.1921 45.8732 54.3165 30.6075 64.7706Z" fill="#FFBD4A"/>
</g>
<defs>
<filter id="filter0_dd_47_9" x="1.52588e-05" y="0" width="203" height="119.781" filterUnits="userSpaceOnUse" color-interpolation-filters="sRGB">
<feFlood flood-opacity="0" result="BackgroundImageFix"/>
<feColorMatrix in="SourceAlpha" type="matrix" values="0 0 0 0 0 0 0 0 0 0 0 0 0 0 0 0 0 0 127 0" result="hardAlpha"/>
<feOffset dy="6"/>
<feGaussianBlur stdDeviation="4"/>
<feComposite in2="hardAlpha" operator="out"/>
<feColorMatrix type="matrix" values="0 0 0 0 0 0 0 0 0 0 0 0 0 0 0 0 0 0 0.2 0"/>
<feBlend mode="normal" in2="BackgroundImageFix" result="effect1_dropShadow_47_9"/>
<feColorMatrix in="SourceAlpha" type="matrix" values="0 0 0 0 0 0 0 0 0 0 0 0 0 0 0 0 0 0 127 0" result="hardAlpha"/>
<feOffset dy="3"/>
<feGaussianBlur stdDeviation="1.75"/>
<feComposite in2="hardAlpha" operator="out"/>
<feColorMatrix type="matrix" values="0 0 0 0 0 0 0 0 0 0 0 0 0 0 0 0 0 0 0.2 0"/>
<feBlend mode="normal" in2="effect1_dropShadow_47_9" result="effect2_dropShadow_47_9"/>
<feBlend mode="normal" in="SourceGraphic" in2="effect2_dropShadow_47_9" result="shape"/>
</filter>
</defs>
</svg>
