<svg width="32" height="42" viewBox="0 0 32 42" fill="none" xmlns="http://www.w3.org/2000/svg">
<path d="M15.9999 1.42944C19.7447 1.42944 23.3421 2.87993 26.0497 5.47339L26.3085 5.72827C29.0434 8.48116 30.581 12.2157 30.581 16.1111C30.581 22.6911 26.9578 28.6501 23.5751 32.7634L22.9042 33.5593C20.813 35.97 18.5008 38.1766 15.9999 40.1511C13.4988 38.1743 11.1874 35.9648 9.09659 33.5515H9.09561C5.54066 29.4409 1.41885 23.1291 1.41885 16.1111C1.41886 12.3375 2.86179 8.71454 5.43839 5.98901L5.69131 5.72827C8.42616 2.97556 12.1345 1.42947 15.9999 1.42944ZM20.2001 15.9998C20.2001 18.3194 18.3195 20.2 15.9999 20.2C13.6804 20.1999 11.7997 18.3193 11.7997 15.9998C11.7999 13.6803 13.6804 11.7996 15.9999 11.7996C18.3194 11.7996 20.2 13.6803 20.2001 15.9998ZM21.7997 15.9998C21.7996 12.7966 19.2031 10.2 15.9999 10.2C12.7968 10.2 10.2002 12.7967 10.2001 15.9998C10.2001 19.203 12.7967 21.7995 15.9999 21.7996C19.2032 21.7996 21.7997 19.203 21.7997 15.9998Z" stroke="#FEFFF5" stroke-width="1.6"/>
</svg>
