<svg width="44" height="44" viewBox="0 0 44 44" fill="none" xmlns="http://www.w3.org/2000/svg">
<path d="M21.9999 2.42944C25.7447 2.42944 29.3421 3.87993 32.0497 6.47339L32.3085 6.72827C35.0434 9.48116 36.581 13.2157 36.581 17.1111C36.581 23.6911 32.9578 29.6501 29.5751 33.7634L28.9042 34.5593C26.813 36.97 24.5008 39.1766 21.9999 41.1511C19.4988 39.1743 17.1874 36.9648 15.0966 34.5515H15.0956C11.5407 30.4409 7.41885 24.1291 7.41885 17.1111C7.41886 13.3375 8.86179 9.71454 11.4384 6.98901L11.6913 6.72827C14.4262 3.97556 18.1345 2.42947 21.9999 2.42944ZM26.2001 16.9998C26.2001 19.3194 24.3195 21.2 21.9999 21.2C19.6804 21.1999 17.7997 19.3193 17.7997 16.9998C17.7999 14.6803 19.6804 12.7996 21.9999 12.7996C24.3194 12.7996 26.2 14.6803 26.2001 16.9998ZM27.7997 16.9998C27.7996 13.7966 25.2031 11.2 21.9999 11.2C18.7968 11.2 16.2002 13.7967 16.2001 16.9998C16.2001 20.203 18.7967 22.7995 21.9999 22.7996C25.2032 22.7996 27.7997 20.203 27.7997 16.9998Z" stroke="#FEFFF5" stroke-width="1.6"/>
</svg>
