<svg width="28" height="36" viewBox="0 0 28 36" fill="none" xmlns="http://www.w3.org/2000/svg">
<path d="M13.999 0.00390625C17.4987 0.0913958 20.8368 1.52961 23.3184 4.02734C25.8798 6.60571 27.3193 10.1028 27.3193 13.749L27.3076 14.3555C27.0816 20.6019 23.4177 26.1296 20.3271 29.71L19.5635 30.5684C17.7572 32.5483 15.7816 34.366 13.6592 36L12.7588 35.2881C10.9757 33.8412 9.30297 32.2615 7.75488 30.5625L6.99121 29.7031C3.9007 26.1298 0.236732 20.6019 0.0107422 14.3555L0 13.749C0 10.2167 1.35046 6.82417 3.76367 4.27148L4.00098 4.02734C6.56255 1.44903 10.0366 8.31264e-05 13.6592 0L13.999 0.00390625ZM13.6592 1.59961C10.664 1.59969 7.78198 2.7227 5.56934 4.73926L5.13574 5.1543C2.87298 7.43184 1.59961 10.5236 1.59961 13.749C1.59972 19.6544 5.08537 25.0525 8.20117 28.6553L8.9375 29.4844C10.4004 31.09 11.9797 32.5836 13.6602 33.9561C15.6261 32.3521 17.4535 30.5813 19.1191 28.6611C22.2355 25.05 25.7186 19.653 25.7188 13.749C25.7188 10.7252 24.6001 7.8189 22.5957 5.59082L22.1836 5.1543C19.9212 2.87711 16.8542 1.59961 13.6592 1.59961ZM13.6592 8.41016C16.5534 8.41016 18.8994 10.7562 18.8994 13.6504C18.8993 16.5444 16.5533 18.8906 13.6592 18.8906C10.7652 18.8905 8.41911 16.5443 8.41895 13.6504C8.41895 10.7563 10.7651 8.41032 13.6592 8.41016ZM13.6592 10.0098C11.6488 10.0099 10.0195 11.64 10.0195 13.6504C10.0197 15.6607 11.6489 17.2899 13.6592 17.29C15.6696 17.29 17.2996 15.6608 17.2998 13.6504C17.2998 11.6399 15.6697 10.0098 13.6592 10.0098Z" fill="#FEFFF5"/>
</svg>
