<svg xmlns="http://www.w3.org/2000/svg" width="46" height="52" fill="none"><g filter="url(#a)"><g filter="url(#b)"><ellipse cx="22.794" cy="35" fill="url(#c)" rx="10" ry="2" shape-rendering="crispEdges"/></g></g><path fill="#FEFFF5" d="M7.21 0h31.828c.549 0 1.031.363 1.183.89l5.341 18.583a1.231 1.231 0 0 1-1.183 1.57h-3.172v15.698c0 .68-.551 1.231-1.231 1.231H28.707l-4.774 6.546a1.231 1.231 0 0 1-1.989 0l-4.774-6.546H5.902c-.68 0-1.231-.55-1.231-1.23V21.043H1.23a1.231 1.231 0 0 1-1.17-1.608L6.038.854A1.231 1.231 0 0 1 7.21 0Z"/><path fill="#3A4D63" d="M7.434 1.17h31.273l5.261 18.705h-4.384v16.66H28.185l-5.26 7.306-5.261-7.307h-11.4v-16.66H1.59L7.434 1.17Z"/><path fill="#A5B6CB" d="m19.417 1.17-.584 18.705H8.895l4.092-18.706h6.43ZM37.246 19.875h-9.937l-.585-18.706h6.43l4.092 18.706Z"/><path fill="#FFC359" d="M9.772 1.17 4.804 19.874h.292l4.969-18.706h-.293ZM22.924 1.17v18.705h.293V1.169h-.293ZM36.077 1.17l4.384 18.705h.292L36.37 1.169h-.292Z"/><defs><filter id="a" width="26" height="10" x="9.793" y="30" color-interpolation-filters="sRGB" filterUnits="userSpaceOnUse"><feFlood flood-opacity="0" result="BackgroundImageFix"/><feBlend in="SourceGraphic" in2="BackgroundImageFix" result="shape"/><feGaussianBlur result="effect1_foregroundBlur_585_170" stdDeviation="1"/></filter><filter id="b" width="30" height="19" x="7.793" y="33" color-interpolation-filters="sRGB" filterUnits="userSpaceOnUse"><feFlood flood-opacity="0" result="BackgroundImageFix"/><feColorMatrix in="SourceAlpha" result="hardAlpha" values="0 0 0 0 0 0 0 0 0 0 0 0 0 0 0 0 0 0 127 0"/><feMorphology in="SourceAlpha" operator="dilate" radius="1" result="effect1_dropShadow_585_170"/><feOffset dy="10"/><feGaussianBlur stdDeviation="2"/><feComposite in2="hardAlpha" operator="out"/><feColorMatrix values="0 0 0 0 0 0 0 0 0 0 0 0 0 0 0 0 0 0 0.25 0"/><feBlend in2="BackgroundImageFix" result="effect1_dropShadow_585_170"/><feBlend in="SourceGraphic" in2="effect1_dropShadow_585_170" result="shape"/></filter><radialGradient id="c" cx="0" cy="0" r="1" gradientTransform="matrix(10 0 0 2 22.794 35)" gradientUnits="userSpaceOnUse"><stop offset=".101" stop-color="#595959"/><stop offset="1" stop-color="#FEFFF5" stop-opacity="0"/></radialGradient></defs></svg>