<svg width="427" height="179" viewBox="0 0 427 179" fill="none" xmlns="http://www.w3.org/2000/svg">
<path d="M17.666 7.04893L2.36983 30.1181L0 67.4988L10.5565 93.7721L29.5151 104.666L60.7538 102.103L77.558 89.5L60.7538 75.8294L51.2745 86.2959L31.4541 83.9463L20.4667 67.4988V43.7888L29.5151 22.642L51.2745 18.3699L63.1236 30.1181L78.8507 20.2924L68.5096 3.84487L46.1039 0L17.666 7.04893Z" fill="#472721"/>
<path fill-rule="evenodd" clip-rule="evenodd" d="M98.671 10.253L85.5293 33.5358L83.3749 71.9845L97.3784 95.6945L130.125 109.152L156.84 97.4033L169.766 65.1492V32.2542L155.762 10.253L138.312 1.92243L120.861 0L98.671 10.253ZM104.488 32.2542L123.016 18.3699L146.929 25.6325L155.762 52.1193L149.084 78.8198L130.125 89.5L107.719 82.0239L101.903 59.5955L104.488 32.2542Z" fill="#472721"/>
<path d="M177.522 1.92243V109.152L197.988 105.734L194.972 57.673L201.005 65.1492L220.825 62.3723V43.148H194.972V15.3795L197.988 18.3699L234.182 20.2924L235.906 5.98091L177.522 1.92243Z" fill="#472721"/>
<path d="M238.706 3.84487V111.074L259.173 107.656L256.157 59.5955L262.189 67.0716L282.01 64.2948V45.0704H256.157V17.3019L259.173 20.2924L295.367 22.2148L297.09 7.90334L238.706 3.84487Z" fill="#472721"/>
<path d="M297.09 3.84487C298.239 28.9077 299.848 85.057 297.09 109.152C309.155 107.656 340.394 105.734 355.474 107.656V91.4224H311.74L315.403 87.364V62.3723L342.117 64.2948L338.885 45.0704H313.033L315.403 18.3699L318.419 22.2148H356.767L353.751 3.84487H297.09Z" fill="#472721"/>
<path d="M363.23 3.84487C364.379 28.9077 365.988 85.057 363.23 109.152C375.295 107.656 406.533 105.734 421.614 107.656V91.4224H377.88L381.542 87.364V62.3723L408.257 64.2948L405.025 45.0704H379.173L381.542 18.3699L384.559 22.2148H422.907L419.891 3.84487H363.23Z" fill="#472721"/>
<path fill-rule="evenodd" clip-rule="evenodd" d="M7.7558 114.705L9.04844 175.369L21.9748 174.087L20.4667 149.095L24.7755 152.727L46.7503 150.804L59.4612 143.115V124.317L49.551 116.628C42.226 115.346 23.6121 113.167 7.7558 114.705ZM20.4667 143.115V125.599H39.6408L46.7503 129.23C46.9657 130.797 47.2673 134.656 46.7503 137.561C46.2332 140.466 41.7952 142.474 39.6408 143.115H20.4667Z" fill="#3A2B28"/>
<path fill-rule="evenodd" clip-rule="evenodd" d="M214.146 118.977C215.295 130.583 216.688 158.537 213.069 177.505H227.934V152.513L238.706 154.222L252.71 177.505H268.221C263.985 174.087 254.476 164.048 250.34 151.232H257.234L264.774 143.328L263.266 125.599L250.34 118.977H214.146ZM246.031 127.521H225.78L227.934 129.23V145.891H246.031L252.71 140.765V131.794L246.031 127.521Z" fill="#3A2B28"/>
<path d="M276.408 118.977H292.351C290.843 131.58 289.119 160.929 294.29 177.505H276.408C277.844 164.546 279.855 134.699 276.408 118.977Z" fill="#3A2B28"/>
<path d="M303.123 118.977L305.277 179H318.634C317.342 169.53 315.144 147.857 316.695 136.92C320.315 144.097 331.13 167.964 336.085 179L355.474 139.697V179L367.754 177.505C365.959 170.741 363.919 149.565 370.124 118.977H350.95L338.239 152.513L321.65 123.89V118.977H303.123Z" fill="#3A2B28"/>
<path d="M421.614 125.599C416.515 121.968 402.009 115.987 384.774 121.113C378.052 131.195 376.372 134.57 376.372 134.998L382.62 148.027L402.44 153.368L411.058 163.407L405.241 170.029C400.286 169.815 388.35 168.533 380.25 165.116C377.147 170.584 375.797 174.657 375.51 176.01C383.266 177.718 401.88 180.111 414.289 176.01C418.426 171.908 422.045 168.462 423.338 167.252L421.614 153.368C413.786 149.238 396.795 140.167 391.453 136.92C390.375 134.998 389.729 133.289 391.453 129.444C393.176 127.521 406.964 126.667 417.952 134.998C419.847 130.555 421.183 126.881 421.614 125.599Z" fill="#3A2B28"/>
<path d="M201.005 129.23L189.155 118.977C181.184 116.77 162.484 114.321 151.454 122.181C144.56 134.357 139.389 139.27 143.482 159.776C146.929 164.261 151.454 174.728 172.136 177.505C192.818 180.282 207.037 154.222 204.021 145.891H172.136V155.717H190.879L179.892 167.038L167.396 165.97L156.84 155.717V140.765C158.06 136.137 162.829 126.624 172.136 125.599C177.522 125.599 185.708 129.658 189.155 135.211C193.809 132.306 198.994 130.014 201.005 129.23Z" fill="#3A2B28"/>
<path d="M94.3623 116.628H107.719V159.776L101.903 165.97L137.665 167.038V176.65L93.2851 177.505C94.2904 159.704 95.9134 122.609 94.3623 116.628Z" fill="#3A2B28"/>
<path d="M34.4702 82.0239L52.5671 80.9558L49.551 83.9463L34.4702 82.0239Z" fill="#472721"/>
<path d="M10.5565 8.33055H14.4344L1.72351 26.4869L10.5565 8.33055Z" fill="#472721"/>
<path d="M80.5742 21.574L65.7089 33.5358L81.8668 23.71L80.5742 21.574Z" fill="#472721"/>
<path d="M65.7089 102.103L78.8507 91.2088L70.664 102.103H65.7089Z" fill="#472721"/>
<path d="M83.8057 117.269H86.6065L83.3749 140.765L83.8057 117.269Z" fill="#3A2B28"/>
<path d="M64.6317 155.717L60.7538 177.505H63.1236L64.6317 155.717Z" fill="#3A2B28"/>
<path d="M28.0071 175.369L23.4828 174.087L23.9555 162.553L28.0071 175.369Z" fill="#3A2B28"/>
<path d="M26.2836 154.222L40.9334 152.727L26.2836 155.717V154.222Z" fill="#3A2B28"/>
<path d="M22.8365 128.376H26.2836L22.8365 139.483V128.376Z" fill="#3A2B28"/>
<path d="M106.858 35.031H109.658L104.488 57.673L106.858 35.031Z" fill="#472721"/>
<path d="M148.222 46.7792L151.454 52.9737L146.929 73.6933L148.222 46.7792Z" fill="#472721"/>
<path d="M109.658 75.8294L124.739 85.4415L109.658 80.9558V75.8294Z" fill="#472721"/>
<path d="M160.717 95.6945L170.628 69.6348L164.38 94.6265L160.717 95.6945Z" fill="#472721"/>
<path d="M160.717 12.1754H164.38L170.628 28.6229L160.717 12.1754Z" fill="#472721"/>
<path d="M198.85 20.2924L228.15 22.2148L200.143 23.2828L198.85 20.2924Z" fill="#472721"/>
<path d="M202.513 68.1396L216.516 65.1492L204.236 71.3437L202.513 68.1396Z" fill="#472721"/>
<path d="M263.266 69.6348L277.27 66.6444L264.99 72.8389L263.266 69.6348Z" fill="#472721"/>
<path d="M259.173 22.2148L288.473 24.1372L260.466 25.2053L259.173 22.2148Z" fill="#472721"/>
<path d="M358.06 62.3723L362.153 57.4594L358.706 106.802L358.06 62.3723Z" fill="#472721"/>
<path d="M384.559 67.0716L388.221 83.9463L384.559 86.2959V67.0716Z" fill="#472721"/>
<path d="M386.067 26.4869H415.797L388.221 29.4773L386.067 26.4869Z" fill="#472721"/>
<path d="M318.419 66.6444L322.081 83.5191L318.419 85.8687V66.6444Z" fill="#472721"/>
<path d="M319.927 26.0597H349.657L322.081 29.0501L319.927 26.0597Z" fill="#472721"/>
<path d="M291.704 63.2267L295.798 58.3138L292.351 107.656L291.704 63.2267Z" fill="#472721"/>
<path d="M91.1307 147.6H93.2851L91.1307 175.369V147.6Z" fill="#3A2B28"/>
<path d="M143.482 163.407L153.823 173.66L142.405 167.038L143.482 163.407Z" fill="#3A2B28"/>
<path d="M160.717 140.765C162.226 137.917 166.319 131.922 170.628 130.726C169.766 129.23 161.795 129.017 160.717 140.765Z" fill="#3A2B28"/>
<path d="M169.12 144.823L171.489 144.183L170.628 155.717L169.12 144.823Z" fill="#3A2B28"/>
<path d="M276.408 152.727L272.53 174.514H274.9L276.408 152.727Z" fill="#3A2B28"/>
<path d="M293.643 118.977H296.444L293.212 142.474L293.643 118.977Z" fill="#3A2B28"/>
<path d="M318.634 151.232L322.728 179H319.927L318.634 151.232Z" fill="#3A2B28"/>
<path d="M323.374 122.609H327.252L334.577 143.328L323.374 122.609Z" fill="#3A2B28"/>
<path d="M339.532 179H342.979L349.442 156.999L339.532 179Z" fill="#3A2B28"/>
<path d="M209.622 118.977H213.069V143.328L209.622 118.977Z" fill="#3A2B28"/>
<path d="M264.774 126.24H267.36V139.483L264.774 126.24Z" fill="#3A2B28"/>
<path d="M379.388 121.113L382.62 121.968L375.079 133.716L379.388 121.113Z" fill="#3A2B28"/>
<path d="M424.415 168.747L427 171.31L416.228 177.505L424.415 168.747Z" fill="#3A2B28"/>
<path d="M421.614 129.444L418.813 139.056H421.614V129.444Z" fill="#3A2B28"/>
<path d="M65.7089 116.628C65.9961 132.577 64.6317 178.786 64.6317 178.786C64.6317 178.786 79.1379 176.935 83.8057 176.65C81.7232 163.834 78.4198 134.015 81.8668 117.269C79.1092 117.269 69.9458 116.841 65.7089 116.628Z" fill="#3A2B28"/>
</svg>
