<svg xmlns="http://www.w3.org/2000/svg" width="143" height="79" fill="none">
  <path fill="#FEFFF5" d="M0 0h13.2697v.39992h-2.8789a8.6587 8.6587 0 0 0 .5828 2.28363l8.1588 23.63605 8.1588-23.83891a2.71232 2.71232 0 0 0 .2157-1.04328c-.0117-.7419-.7576-1.03749-1.929-1.03749h-2.6691V0h9.0096v.39992c-2.9138 0-3.4966.5796-4.1551 2.42853L16.4109 35.9989h-.9616L2.55837.39992H0V0ZM41.7904 12.3684c5.9152 0 8.2463 2.7589 8.2463 6.6422.0156 1.2365-.2725 2.4581-.8392 3.5588H37.6877v1.6402c0 6.8277 1.0257 10.8095 6.2473 10.8095 1.3836.0071 2.7158-.5211 3.7152-1.4728.9993-.9517 1.5876-2.2525 1.6405-3.6276h.4196c0 2.7125-2.3311 6.08-7.8732 6.08-6.8709 0-10.7172-3.4139-10.7172-11.7891 0-8.097 3.9628-11.8412 10.6705-11.8412Zm-4.0794 9.8532h4.9419c1.9582 0 2.4244-1.3563 2.4244-3.5529 0-3.2748-.4196-5.8946-3.2636-5.8946-3.2868-.0232-4.0327 3.524-4.126 9.4185l.0233.029ZM70.6027 36.1904H57.6943v-.3188h2.9139V6.27728h-2.9139V5.9585h9.9654v29.9131h2.9139l.0291.3188ZM92.556 12.7512h-1.3578v-.3883h6.2414v.3883h-.6585c-1.0315 0-1.5968.7825-2.2495 2.4402L86.7399 35.999h-.845l-8.3103-21.0453c-.5828-1.5591-1.1248-2.1967-2.1563-2.1967h-.5186v-.3883h11.9235v.3825h-3.2868c-.0283.8383.1331 1.6722.472 2.4402l5.3032 12.8613 4.8312-12.9831c.1205-.3107.1837-.6406.1865-.9737 0-.7998-.6061-1.3447-1.7833-1.3447ZM113.058 12.7512c5.938 0 8.281 2.7183 8.281 6.5437.013 1.2109-.278 2.406-.845 3.4776h-11.515v1.6171c0 6.7291 1.031 10.6472 6.27 10.6472 1.375.0228 2.706-.4868 3.711-1.4211 1.004-.9343 1.605-2.2204 1.674-3.5866h.425c0 2.6719-2.331 5.993-7.908 5.993-6.923 0-10.764-3.3674-10.764-11.592-.029-7.9984 3.952-11.6789 10.671-11.6789Zm-4.079 9.6735h4.959c1.97 0 2.436-1.3388 2.436-3.4776 0-3.2225-.42-5.796-3.275-5.796-3.299-.0405-4.051 3.466-4.12 9.2736ZM124.288 12.3514h.67c3.636 0 6.504-1.7388 8.858-5.79598h.46v5.79598h5.006v.3999h-5.023v17.7995c0 2.7242.769 4.3992 3.077 4.3992.407.0419.818-.0357 1.181-.2232.364-.1874.664-.4765.865-.8317l.308.1449c-.821 1.4316-2.867 1.9591-5.734 1.9591-3.741 0-6.457-1.1592-6.457-5.0657V12.7513h-3.229l.018-.3999ZM13.3397 72.9427H0v-.3709h3.22273V40.062H0v-.3767h13.3397v.3767h-3.2228v32.5098h3.2228v.3709Zm14.3944 4.3354c-5.344-2.2546-7.1448-5.2627-8.7066-8.891l-3.2227-7.8652c-1.3579-3.2052-3.5666-4.8802-5.21-5.0193l5.3673-6.3177c.9121-1.1632 2.0597-2.1228 3.3685-2.8168l1.6842-1.0491-5.6121 6.5089c2.2611-2.3184 5.2857 2.6488 7.2497 7.5348l3.0712 7.5348c2.9838 8.1144 8.2579 11.1225 15.7348 12.0904-.0291 0-9.0329.2666-13.7243-1.7098Z"/>
  <path fill="#FEFFF5" d="M41.377 49.3123c6.2357 0 8.6892 2.7588 8.6892 6.6306.0148 1.2401-.2902 2.4633-.8859 3.5529H37.0295v1.6345c0 6.8219 1.0782 10.7921 6.5795 10.7921 3.3335 0 5.6413-2.6198 5.6413-5.0947h.4429c0 2.7126-2.4535 6.0742-8.2929 6.0742-7.2671 0-11.2941-3.408-11.2941-11.7716 0-8.0796 4.1727-11.818 11.2708-11.818Zm-4.3475 9.8068h5.2042c2.0572 0 2.5525-1.3505 2.5525-3.5472 0-3.2689-.4429-5.8829-3.4383-5.8829-3.4384 0-4.2193 3.5471-4.3184 9.4301ZM65.661 72.8442H53.5452v-.3941h2.6341V50.4253h-2.6341v-.3767h7.4245l1.0548 6.8218h.1399c.338-5.7438 2.9138-7.3377 5.5596-7.3377 2.6458 0 3.7822 1.6924 3.7822 3.3385 0 3.1994-2.9139 4.9382-5.6995 5.17l-.1457-.0927c.5318-1.3045.7953-2.7018.7751-4.1094 0-1.5011-.6236-2.7299-1.2005-2.9617-.6702.1391-2.4418 1.5069-2.6808 6.7233v14.8494h3.112l-.0058.3941ZM86.0288 72.8441h-11.469V72.45h2.605V50.3615h-2.605v-.3768h8.4852l.3322 4.4745c1.5152-3.6283 4.2659-4.9439 7.442-4.9439 4.8311 0 6.7776 1.7388 6.7776 7.442V72.45h2.6052v.3768H88.7328V72.45h2.605V53.6594c0-2.2141-.5186-3.3443-2.3311-3.3443-1.8998 0-4.4115 1.6461-5.5946 5.2164V72.45h2.605l.0117.3941ZM113.897 49.5153c6.154 0 8.579 2.7241 8.579 6.5552.015 1.2251-.284 2.4339-.869 3.5124h-11.976V61.2c0 6.7465 1.067 10.6762 6.498 10.6762 3.293 0 5.572-2.5908 5.572-5.0367h.437c0 2.6777-2.425 6.0046-8.194 6.0046-7.174 0-11.149-3.3732-11.149-11.6441 0-7.9927 4.121-11.6847 11.102-11.6847Zm-4.266 9.6967h5.14c2.034 0 2.518-1.3389 2.518-3.4776 0-3.2342-.437-5.796-3.392-5.796-3.397-.058-4.172 3.4544-4.266 9.2736ZM137.324 72.9021h-12.028v-.3013h2.733V45.2495h-2.733v-.2956h9.324v27.6469h2.733l-.029.3013Z"/>
  <path fill="#FFBD4A" d="M17.2092 47.7821c6.8879-6.1938 15.8433-9.6227 25.1292-9.6213 15.6066 0 16.201 1.5997 28.2062 1.5997 14.0215 0 16.9295-6.8103 35.4444-.9911 18.957 5.9582 22.885 2.5908 27.711.0869 2.581-1.3447 6.066-2.898 8.648-3.3849-2.246.9749-4.366 2.2123-6.317 3.6863-4.459 3.2979-6.009 3.8427-9.669 4.7469-6.154 1.5243-12.978.4173-21.877-1.5128-7.3019-1.5765-12.1914-1.5243-15.5598-.7882-4.3766.9563-9.2486 2.7821-18.0659 3.1066-5.3557.1971-10.8163 0-21.5626-2.5212-7.1856-1.6982-20.467-2.3648-32.0875 5.5931Z"/>
</svg>
