<svg xmlns="http://www.w3.org/2000/svg" width="32" height="42" fill="none">
  <path stroke="#FEFFF5" stroke-width="1.6" d="M15.9999 1.42944c3.7448 0 7.3422 1.45049 10.0498 4.04395l.2588.25488c2.7349 2.75289 4.2725 6.48743 4.2725 10.38283 0 6.58-3.6232 12.539-7.0059 16.6523l-.6709.7959c-2.0912 2.4107-4.4034 4.6173-6.9043 6.5918-2.5011-1.9768-4.8125-4.1863-6.90331-6.5996h-.00098c-3.55495-4.1106-7.67676-10.4224-7.67676-17.4404.00001-3.7736 1.44294-7.39656 4.01954-10.12209l.25292-.26074c2.73485-2.75271 6.44319-4.2988 10.30859-4.29883Zm4.2002 14.57036c0 2.3196-1.8806 4.2002-4.2002 4.2002-2.3195-.0001-4.2002-1.8807-4.2002-4.2002.0002-2.3195 1.8807-4.2002 4.2002-4.2002 2.3195 0 4.2001 1.8807 4.2002 4.2002Zm1.5996 0c-.0001-3.2032-2.5966-5.7998-5.7998-5.7998-3.2031 0-5.7997 2.5967-5.7998 5.7998 0 3.2032 2.5966 5.7997 5.7998 5.7998 3.2033 0 5.7998-2.5966 5.7998-5.7998Z"/>
</svg>
