<svg xmlns="http://www.w3.org/2000/svg" width="35" height="30" fill="none"><path fill="#FEFFF5" d="M12.951 23.645c1.594 0 3.074 1.15 3.075 2.788 0 1.637-1.481 2.788-3.075 2.788-1.593 0-3.074-1.15-3.074-2.788 0-1.637 1.48-2.788 3.074-2.788Zm14.784 0c1.593 0 3.074 1.15 3.074 2.788s-1.48 2.788-3.074 2.788c-1.594 0-3.075-1.15-3.075-2.788 0-1.637 1.481-2.788 3.075-2.788Zm-14.784 1.6c-.918 0-1.474.63-1.474 1.188 0 .559.556 1.188 1.474 1.189.919 0 1.475-.63 1.475-1.189s-.556-1.188-1.475-1.189Zm14.784 0c-.919 0-1.475.63-1.475 1.188 0 .559.556 1.188 1.475 1.189.918 0 1.474-.63 1.474-1.189s-.556-1.189-1.474-1.189ZM5.123.788a.8.8 0 0 1 .639.58l.923 3.386H33.42a.8.8 0 0 1 .774 1.004l-3.413 12.925a.8.8 0 0 1-.773.596H10.641l.646 2.377H30.81v1.6H10.676a.8.8 0 0 1-.727-.465l-.044-.125L4.379 2.378H.78v-1.6H4.99l.133.011Zm5.081 16.891h19.189l2.99-11.325H7.12l3.084 11.325Z"/></svg>