<svg width="151" height="74" viewBox="0 0 151 74" fill="none" xmlns="http://www.w3.org/2000/svg">
<path d="M150.06 11.0139C147.755 11.9241 144.705 13.9871 143.69 17.8115L143.641 17.9932L143.725 18.1625C144.378 19.4731 145.493 20.7413 146.593 21.7823C147.661 22.7936 148.748 23.6181 149.456 24.0921C149.599 24.28 149.768 24.6876 149.81 25.4222C149.854 26.1946 149.756 27.2722 149.393 28.6982C148.669 31.5508 146.905 35.7432 143.237 41.5775L143.066 41.8506L143.244 42.1193C144.026 43.2968 145.086 44.501 145.89 45.5262C146.302 46.0509 146.65 46.5322 146.895 46.9675C147.144 47.4109 147.255 47.7545 147.255 48.0122C147.255 47.9821 147.264 47.9994 147.217 48.0791C147.172 48.1547 147.094 48.2559 146.975 48.3806C146.737 48.6304 146.382 48.9298 145.933 49.2713C145.033 49.9553 143.838 50.7483 142.609 51.601C141.394 52.4443 140.153 53.3419 139.214 54.2048C138.745 54.6361 138.334 55.0729 138.038 55.5043C137.747 55.9293 137.534 56.3971 137.534 56.8792C137.534 57.3723 137.756 57.811 138.057 58.1925C138.357 58.5742 138.77 58.9422 139.228 59.3026C139.688 59.6647 140.219 60.0394 140.767 60.4263C141.32 60.8161 141.895 61.2225 142.46 61.6603C144.721 63.4113 146.67 65.5423 146.247 68.6762C145.631 69.8341 144.487 71.9609 143.95 72.8686L143.846 73.0348L3.62874 63.4023L3.42941 63.0549C3.27893 62.7934 2.96711 62.4429 2.63876 62.0952C2.29792 61.7342 1.8817 61.3171 1.4958 60.9204C1.10331 60.517 0.73843 60.1309 0.472756 59.8097C0.339521 59.6486 0.240277 59.516 0.177893 59.4136C0.14499 59.3595 0.131752 59.3265 0.126055 59.3131L0.126007 59.271L0.100752 59.1968C0.0710687 59.1036 0.0661909 58.8864 0.15947 58.4981C0.247968 58.1298 0.406973 57.6787 0.619058 57.1641C1.0437 56.1339 1.65335 54.9155 2.25356 53.7005C2.84707 52.4991 3.43479 51.2948 3.78973 50.329C3.96595 49.8494 4.09877 49.3939 4.13574 49.0097C4.16756 48.6785 4.14246 48.2262 3.80705 47.9369C1.53085 45.2804 1.27768 43.8272 1.47387 43.0949C1.66562 42.3798 2.36193 42.092 2.7601 41.9821L2.84388 41.9594L2.91485 41.9095C6.11635 39.6606 8.47053 37.9692 10.0925 36.6796C10.9032 36.035 11.5419 35.4827 12.0153 35.0046C12.4815 34.5338 12.8219 34.1007 12.9941 33.6945C13.1222 33.3916 13.096 33.0734 13.0109 32.7931C12.9257 32.5129 12.7696 32.2284 12.5793 31.9501C12.1979 31.3923 11.6172 30.7777 10.9478 30.1633C9.60392 28.9301 7.82016 27.6209 6.30492 26.6419L6.27586 26.6232L6.24457 26.6084L5.75841 26.3753C4.67241 25.8415 3.92962 25.3727 3.43623 24.9679C2.86779 24.5015 2.67227 24.1559 2.61928 23.935C2.5726 23.74 2.6217 23.5761 2.74471 23.4052C2.84527 23.2657 2.98406 23.1391 3.13522 23.0209L3.28998 22.9052C7.0431 20.485 7.77718 18.1977 9.44522 15.7845L9.62661 15.5092C10.4891 14.1328 10.6923 12.7577 10.461 11.4229C10.218 10.021 9.50051 8.69119 8.64589 7.46222C7.79206 6.2345 6.76399 5.05892 5.87508 3.99096C5.08142 3.03742 4.40963 2.18089 3.99957 1.40924L3.92406 1.25429L3.94312 0.976624L150.06 11.0139Z" fill="#BE3900"/>
</svg>
