<svg width="393" height="870" viewBox="0 0 393 870" fill="none" xmlns="http://www.w3.org/2000/svg">
<path d="M85.646 227.24C87.5068 226.983 89.0886 229.297 88.903 232.791C90.502 231.732 92.8181 231.197 95.7117 232.684C96.9036 233.284 97.6431 235.885 90.3175 238.085C90.3781 238.549 90.2787 238.971 90.1154 239.321C89.9621 239.649 89.7419 239.936 89.5753 240.139L89.3677 240.387L89.2902 240.45C88.8781 240.782 88.437 241.012 87.9435 241.087C87.4498 241.162 87.0108 241.065 86.6394 240.93C86.2912 240.803 85.9263 240.612 85.6122 240.454C85.2758 240.286 84.9245 240.116 84.513 239.964L84.4497 239.941L84.3893 239.909C83.172 239.263 82.309 238.577 81.7848 237.867C81.2552 237.151 81.0173 236.321 81.2888 235.528C81.5549 234.752 82.2175 234.285 82.8981 234.087C83.2097 233.997 83.5428 233.958 83.8846 233.966C83.7025 231.559 83.7662 227.759 85.4672 227.277L85.646 227.24ZM88.8792 239.407C88.8059 239.5 88.7314 239.588 88.6622 239.671C88.6038 239.718 88.5454 239.759 88.4894 239.797L88.6632 239.671C88.767 239.546 88.8823 239.411 88.988 239.264L88.8792 239.407ZM83.7434 238.349C83.7923 238.384 83.8439 238.416 83.8955 238.451C83.8196 238.4 83.7466 238.349 83.6762 238.299L83.7434 238.349ZM82.4996 237.142C82.5412 237.205 82.5867 237.269 82.6371 237.333C82.5869 237.268 82.5411 237.205 82.4996 237.142ZM82.3445 236.877C82.3832 236.957 82.4309 237.036 82.4844 237.119C82.3879 236.97 82.3147 236.826 82.2649 236.687L82.3445 236.877ZM95.2551 233.574C93.1338 232.484 91.4587 232.645 90.2201 233.201C89.508 233.521 88.9143 233.984 88.4544 234.462C88.3486 234.682 88.2277 234.895 88.0935 235.094L89.2498 236.33C89.4884 236.536 89.6909 236.75 89.8549 236.976L90.0036 237.135C93.532 236.078 94.8906 235 95.3136 234.333C95.5081 234.026 95.4754 233.859 95.4567 233.799C95.4356 233.731 95.3885 233.666 95.3278 233.619L95.2626 233.577L95.2551 233.574ZM84.4665 235.045C84.4792 235.048 84.4919 235.052 84.5047 235.055C84.4381 235.038 84.372 235.023 84.3062 235.01L84.4665 235.045ZM85.7827 228.23C85.705 228.241 85.5656 228.287 85.3877 228.605C85.2011 228.938 85.0486 229.449 84.949 230.112C84.7665 231.326 84.797 232.794 84.8873 233.949C84.951 234.033 85.0137 234.111 85.0741 234.185C85.0954 234.192 85.1172 234.198 85.1385 234.206L85.6916 234.415C86.113 234.579 86.499 234.741 86.8522 234.901C87.0452 234.585 87.2985 234.242 87.6083 233.902C87.7119 233.669 87.801 233.43 87.8687 233.201C88.0397 231.479 87.7451 230.123 87.269 229.266C86.843 228.499 86.3568 228.236 85.9516 228.222L85.7827 228.23Z" fill="#666B94" fill-opacity="0.8"/>
<path d="M35.5091 139.843C33.4 140.321 32.6355 143.457 34.2544 147.147C32.1018 146.655 29.3897 147.019 26.8757 149.796C25.8524 150.907 26.9199 154.556 35.3528 154.138C35.459 154.298 35.5779 154.441 35.7058 154.566C36.0867 154.938 36.5627 155.19 36.814 155.332L36.8998 155.381L36.9942 155.412C37.5557 155.596 38.0967 155.661 38.6256 155.548C39.1544 155.436 39.5646 155.169 39.8985 154.882C40.2139 154.611 40.5223 154.265 40.8004 153.965C41.0953 153.645 41.4095 153.315 41.798 152.979L41.849 152.935L41.8942 152.883C42.935 151.702 43.5712 150.633 43.8398 149.686C44.1107 148.73 44.0259 147.795 43.4532 147.102C42.8912 146.422 42.0416 146.196 41.2624 146.257C40.901 146.285 40.536 146.376 40.1796 146.522C40.2144 146.421 40.2495 146.317 40.2826 146.21L40.4165 145.745C39.6848 143.107 37.8569 139.567 35.7169 139.808L35.5091 139.843ZM38.1695 154.6C38.1121 154.603 38.0529 154.602 37.9918 154.599C38.0529 154.602 38.1121 154.603 38.1695 154.6ZM37.9302 154.594C37.885 154.591 37.839 154.585 37.7917 154.578C37.839 154.585 37.885 154.591 37.9302 154.594ZM37.7392 154.569C37.6893 154.561 37.6383 154.551 37.5858 154.539C37.6383 154.551 37.6893 154.561 37.7392 154.569ZM37.5145 154.521C37.5001 154.517 37.485 154.516 37.4704 154.511L37.3064 154.462C37.3779 154.485 37.4476 154.504 37.5145 154.521ZM41.1437 152.223C40.8257 152.498 40.555 152.767 40.3142 153.02L40.699 152.629C40.8366 152.496 40.984 152.36 41.1432 152.222C41.2664 152.082 41.3832 151.946 41.4926 151.812L41.1437 152.223ZM42.5065 150.312C42.497 150.33 42.4881 150.349 42.4783 150.367C42.4881 150.349 42.497 150.33 42.5065 150.312ZM42.6757 149.959C42.6589 149.997 42.6425 150.036 42.6242 150.076C42.6425 150.036 42.6589 149.997 42.6757 149.959ZM42.7851 149.688C42.7724 149.723 42.7593 149.758 42.7453 149.793C42.7593 149.758 42.7724 149.723 42.7851 149.688ZM42.8726 149.419C42.8644 149.448 42.8554 149.477 42.8463 149.506C42.8554 149.477 42.8644 149.448 42.8726 149.419ZM42.934 149.166C42.9276 149.198 42.9201 149.23 42.9125 149.262C42.9201 149.23 42.9276 149.198 42.934 149.166ZM27.6166 150.467C29.49 148.398 31.4048 147.874 33.0119 147.973C33.8281 148.023 34.5868 148.238 35.2407 148.521C35.5941 148.825 35.9981 149.075 36.4255 149.226L36.291 149.943C36.1756 150.085 36.068 150.223 35.9696 150.357C35.347 151.208 34.9931 151.997 34.9639 152.747C34.9584 152.889 34.9659 153.025 34.9822 153.154C31.2776 153.294 29.2898 152.594 28.3393 151.878C27.8151 151.483 27.6261 151.102 27.5733 150.858C27.518 150.602 27.5994 150.486 27.6109 150.473L27.6166 150.467ZM42.971 148.936C42.9686 148.957 42.9641 148.978 42.9612 148.999C42.9641 148.978 42.9686 148.957 42.971 148.936ZM34.4332 142.664C34.5967 141.558 35.0899 141.018 35.623 140.848L35.7295 140.818C36.192 140.713 36.8737 141.003 37.7005 142.164C38.4163 143.168 39.009 144.529 39.3749 145.75C39.0911 146.728 38.7601 147.348 38.4391 147.739C38.277 147.885 38.1221 148.029 37.9732 148.168C37.7496 148.314 37.5478 148.368 37.3902 148.381C37.2647 148.391 37.1324 148.379 36.9961 148.35C36.6478 148.11 36.2401 147.874 35.7852 147.667C35.6515 147.541 35.5231 147.402 35.4065 147.251C34.507 145.439 34.2623 143.821 34.4332 142.664Z" fill="#666B94" fill-opacity="0.8"/>
<path d="M114.713 83.8592C113.699 82.5717 111.301 83.0735 109.305 85.3905C108.878 84.6077 107.868 83.8742 105.76 83.2405C104.686 82.908 102.02 82.9429 104.769 88.149C104.647 88.3244 104.557 88.5095 104.495 88.6918C104.352 89.1089 104.334 89.5518 104.319 89.7589L104.312 89.858L104.325 89.9559C104.385 90.4283 104.527 90.8634 104.809 91.2316C105.091 91.5999 105.446 91.8147 105.772 91.9593C106.076 92.094 106.429 92.1979 106.717 92.2876C106.951 92.3605 107.187 92.4369 107.435 92.5341L107.688 92.6385L107.749 92.6662L107.815 92.685C108.979 93.0178 109.955 93.114 110.738 92.9816C111.53 92.8477 112.225 92.452 112.557 91.7409C112.823 91.1698 112.77 90.5704 112.565 90.0636C114.013 88.4241 115.55 85.298 114.804 83.9953L114.713 83.8592ZM108.091 91.7236C107.905 91.6419 107.727 91.5722 107.557 91.5115C107.727 91.5721 107.904 91.6414 108.09 91.723C108.225 91.7617 108.357 91.797 108.484 91.8282L108.091 91.7236ZM105.472 84.1972C107.638 84.8484 108.271 85.5216 108.465 85.9481C108.627 86.3044 108.601 86.7019 108.457 87.3169L108.069 87.4198C107.952 87.3923 107.839 87.3672 107.73 87.3465C106.925 87.1935 106.217 87.1994 105.631 87.4499C105.605 87.4613 105.58 87.476 105.555 87.4882C105.082 86.5698 104.808 85.8634 104.672 85.3268C104.481 84.5689 104.592 84.2861 104.623 84.229C104.633 84.2113 104.659 84.1582 104.839 84.1328C105.035 84.1051 105.28 84.1377 105.464 84.1947L105.472 84.1972ZM111.501 91.5463C111.469 91.5819 111.434 91.6155 111.396 91.648L111.5 91.5457C111.531 91.5104 111.56 91.4741 111.585 91.4361L111.501 91.5463ZM109.799 89.0469C109.798 89.046 109.798 89.0452 109.797 89.0443C109.869 89.0731 109.941 89.1022 110.015 89.1329L110.355 89.2791C110.163 89.1954 109.977 89.1193 109.799 89.0469ZM113.927 84.4782C113.947 84.5036 114.041 84.6754 113.977 85.1623C113.918 85.619 113.738 86.1918 113.459 86.8124C113.061 87.6946 112.515 88.5553 111.994 89.1901C111.691 88.8717 111.311 88.6052 110.877 88.4145L110.402 88.2109C110.096 88.0832 109.806 87.9696 109.532 87.8689C109.53 87.7087 109.536 87.5448 109.554 87.3809C109.603 86.9347 109.72 86.5565 109.838 86.3147C110.753 85.1602 111.73 84.5126 112.51 84.2738C113.213 84.0586 113.625 84.1908 113.844 84.3898L113.927 84.4782Z" fill="#666B94" fill-opacity="0.8"/>
<path d="M376.383 125.169C374.511 125.737 374.026 128.621 375.735 131.846C374.679 131.982 373.425 132.782 371.806 134.85C370.961 135.909 369.827 138.938 377.049 138.057C377.168 138.218 377.3 138.359 377.441 138.477C377.819 138.797 378.277 139 378.508 139.11L378.597 139.152L378.694 139.176C379.222 139.309 379.731 139.334 380.221 139.193C380.711 139.051 381.077 138.774 381.366 138.487C381.637 138.218 381.897 137.882 382.126 137.596C382.37 137.29 382.628 136.977 382.952 136.654L383.001 136.606L383.041 136.552C383.907 135.416 384.42 134.399 384.605 133.51C384.792 132.612 384.655 131.74 384.066 131.122C383.617 130.651 383.025 130.457 382.445 130.444C381.313 128.104 378.394 124.854 376.572 125.127L376.383 125.169ZM372.592 135.466C374.265 133.331 375.333 132.862 375.978 132.826C376.192 132.814 376.397 132.844 376.607 132.913C376.921 133.16 377.296 133.396 377.706 133.591L377.64 134.171C377.55 134.3 377.465 134.425 377.388 134.548C376.878 135.361 376.599 136.112 376.621 136.817C376.624 136.914 376.634 137.008 376.647 137.098C375.315 137.246 374.335 137.246 373.627 137.157C372.675 137.037 372.354 136.778 372.261 136.665C372.195 136.585 372.15 136.465 372.209 136.217C372.256 136.018 372.357 135.809 372.471 135.634L372.587 135.473L372.592 135.466ZM381.349 131.716L381.162 131.825C381.099 131.864 381.037 131.906 380.976 131.951L381.161 131.824C381.223 131.785 381.286 131.749 381.349 131.716ZM376.588 126.156L376.673 126.126C376.783 126.093 377.074 126.091 377.605 126.383C378.109 126.66 378.682 127.123 379.258 127.711C380.137 128.608 380.916 129.691 381.403 130.608C380.87 130.789 380.356 131.11 379.916 131.548L379.486 131.985C379.178 132.304 378.899 132.607 378.648 132.895C378.581 132.873 378.515 132.849 378.449 132.823C378.023 132.514 377.588 132.227 377.122 132.04C377.014 131.949 376.919 131.863 376.843 131.78C375.93 130.224 375.616 128.808 375.694 127.782C375.768 126.8 376.164 126.325 376.588 126.156Z" fill="#666B94" fill-opacity="0.8"/>
<path d="M237.118 164.113C238.266 161.954 242.029 162.157 245.556 165.276C246.046 163.164 247.711 160.775 251.353 158.926C252.827 158.164 258.846 159.832 251.905 168.175C252.431 168.738 252.692 169.41 252.815 169.893L252.839 169.989L252.844 170.088C252.876 170.716 252.791 171.282 252.532 171.786C252.273 172.289 251.889 172.631 251.502 172.894C251.135 173.142 250.692 173.363 250.297 173.569C249.88 173.786 249.443 174.021 248.979 174.333L248.923 174.371L248.862 174.401C245.845 175.882 243.38 175.799 242.058 174.45C241.037 173.408 241.028 171.969 241.757 170.832C239.236 169.301 236.176 166.448 237.022 164.319L237.118 164.113ZM251.806 159.818C247.597 161.954 246.392 164.705 246.399 166.674C246.52 167 246.603 167.337 246.634 167.674C248.057 167.126 249.208 167.001 250.152 167.203C250.519 167.281 250.836 167.408 251.113 167.561C252.671 165.694 253.513 164.23 253.902 163.113C254.333 161.881 254.194 161.145 253.969 160.724C253.737 160.287 253.31 159.995 252.816 159.852C252.572 159.782 252.335 159.756 252.139 159.761C252.042 159.764 251.962 159.774 251.902 159.787C251.873 159.794 251.851 159.801 251.835 159.806L251.814 159.814L251.806 159.818ZM242.504 171.517C242.466 171.587 242.433 171.657 242.403 171.728L242.504 171.516C242.542 171.447 242.584 171.379 242.63 171.312L242.504 171.517ZM240.372 163.713C239.155 163.567 238.416 163.931 238.066 164.472L238 164.582C237.734 165.082 237.874 165.913 238.851 167.107C239.707 168.153 240.975 169.168 242.155 169.901C242.324 169.898 242.485 169.891 242.639 169.882C242.701 169.835 242.764 169.789 242.829 169.745L243.441 169.344C244.216 168.85 244.934 168.446 245.6 168.125C245.486 167.738 245.415 167.314 245.398 166.862C245.28 166.585 245.122 166.31 244.928 166.055C243.284 164.591 241.649 163.866 240.372 163.713Z" fill="#666B94" fill-opacity="0.8"/>
<path d="M317.271 191.549C316.074 190.639 314.023 191.722 312.856 194.373C312.038 193.319 310.492 192.414 307.981 192.32C306.981 192.274 304.143 194.657 309.709 197.457C309.514 198.007 309.548 198.547 309.612 198.894L309.63 198.991L309.667 199.083C309.828 199.485 310.056 199.844 310.399 200.112C310.742 200.379 311.113 200.489 311.434 200.541C311.731 200.59 312.064 200.6 312.325 200.613C312.611 200.626 312.898 200.645 313.216 200.696L313.283 200.706L313.351 200.708C315.47 200.759 317.06 200.064 317.537 198.728C317.912 197.679 317.447 196.71 316.618 196.178C317.549 194.674 318.33 192.545 317.379 191.64L317.271 191.549ZM313.118 199.673C312.93 199.65 312.754 199.638 312.589 199.628C312.749 199.638 312.92 199.649 313.102 199.67L313.118 199.673ZM315.039 199.544C314.59 199.662 314.038 199.725 313.375 199.709L313.735 199.709C314.241 199.699 314.674 199.639 315.039 199.544ZM315.245 199.485C315.187 199.504 315.128 199.52 315.066 199.537C315.128 199.52 315.187 199.504 315.245 199.485ZM307.944 193.319C310.838 193.428 312.05 194.67 312.44 195.645C311.646 195.744 311.025 195.972 310.554 196.326C310.436 196.414 310.334 196.508 310.241 196.603C309.072 196.023 308.344 195.495 307.913 195.049C307.406 194.524 307.357 194.177 307.366 194.02C307.376 193.845 307.472 193.663 307.654 193.505C307.817 193.363 307.941 193.331 307.957 193.322L307.935 193.319L307.944 193.32L307.944 193.319ZM316.667 192.345C316.74 192.4 316.936 192.671 316.702 193.572C316.516 194.292 316.119 195.105 315.689 195.776C315.671 195.783 315.653 195.79 315.636 195.797C315.622 195.794 315.607 195.79 315.593 195.788L315.142 195.72C314.659 195.654 314.211 195.615 313.796 195.598C313.731 195.376 313.712 195.081 313.779 194.759C314.295 193.595 314.967 192.851 315.551 192.492C316.079 192.167 316.412 192.204 316.597 192.301L316.667 192.345Z" fill="#666B94" fill-opacity="0.8"/>
<path d="M318.92 392.836C318.725 391.549 317.032 390.889 314.839 391.44C315.314 390.419 315.292 389.16 313.848 387.648C312.983 385.884 307.512 385.891 309.387 391.803C308.86 392.061 308.505 392.474 308.308 392.769L308.253 392.852L308.215 392.943C307.818 393.91 308.085 394.84 308.446 395.562C308.801 396.271 309.348 396.975 309.776 397.549L309.816 397.604L309.863 397.652C310.645 398.449 311.452 398.941 312.259 399.088C313.1 399.241 313.855 399 314.406 398.506C314.987 397.983 315.308 397.203 315.312 396.41C316.999 395.72 318.956 394.207 318.932 392.979L318.92 392.836ZM309.921 396.058C310.023 396.203 310.128 396.348 310.236 396.493L310.246 396.508C310.135 396.358 310.026 396.208 309.921 396.058ZM313.125 388.34C313.744 388.987 313.994 389.51 314.078 389.904C314.16 390.286 314.104 390.633 313.951 390.98C313.79 391.343 313.523 391.698 313.195 392.054C313.033 392.229 312.886 392.377 312.741 392.518C312.051 391.967 311.4 391.664 310.772 391.584C310.63 391.566 310.495 391.562 310.365 391.565C309.98 390.38 309.942 389.544 310.054 388.981C310.182 388.342 310.506 388.005 310.865 387.821C311.26 387.62 311.762 387.575 312.214 387.676C312.697 387.785 312.908 388.001 312.951 388.089L313.019 388.227L313.125 388.34ZM317.932 392.986C317.934 393.005 317.939 393.154 317.729 393.462C317.529 393.754 317.203 394.086 316.779 394.416C316.267 394.814 315.68 395.155 315.135 395.398C315.046 395.156 314.923 394.923 314.763 394.708L314.486 394.346C314.189 393.967 313.899 393.63 313.616 393.332C313.786 393.063 313.994 392.838 314.183 392.704C315.363 392.23 316.36 392.165 317.029 392.314C317.635 392.45 317.848 392.708 317.912 392.906L317.932 392.986Z" fill="#666B94" fill-opacity="0.8"/>
<path d="M348.669 525.844C350.793 526.01 355.189 528.073 355.465 531.415C356.521 530.519 358.008 530.363 360.451 532.256C363.468 533.418 364.354 539.197 355.94 540.186C355.692 541.076 355.074 541.694 354.622 542.035L354.542 542.095L354.452 542.138C353.188 542.743 351.869 542.496 350.73 542.048C349.598 541.602 348.434 540.871 347.412 540.255L347.357 540.222L347.306 540.181C345.96 539.11 345.132 538.014 344.807 536.929C344.47 535.804 344.702 534.765 345.317 533.981C345.815 533.347 346.535 532.909 347.332 532.7C346.465 530.016 346.469 525.821 348.555 525.839L348.669 525.844ZM359.838 533.047C358.6 532.087 357.761 531.799 357.215 531.776C356.724 531.754 356.334 531.941 355.941 532.336C355.517 532.763 355.155 533.368 354.758 534.082C354.505 534.538 354.216 535.076 353.893 535.554C355.078 536.641 355.723 537.648 355.952 538.596C356 538.794 356.026 538.984 356.039 539.166C359.734 538.687 361.114 537.262 361.474 536.174C361.888 534.924 361.181 533.609 360.091 533.189L359.954 533.136L359.838 533.047ZM346.66 534.085C346.57 534.146 346.486 534.214 346.406 534.284C346.495 534.205 346.59 534.131 346.691 534.064L346.66 534.085ZM351.674 535.062C351.522 534.954 351.365 534.845 351.2 534.735C351.365 534.845 351.522 534.954 351.674 535.062ZM350.033 533.994C350.454 534.248 350.843 534.494 351.2 534.735C351.022 534.615 350.837 534.493 350.643 534.37L350.033 533.993C349.951 533.943 349.866 533.899 349.78 533.858L350.033 533.994ZM352.77 528.695C351.488 527.636 349.823 527.002 348.788 526.862L348.59 526.841C348.474 526.832 348.417 526.855 348.38 526.877C348.334 526.905 348.257 526.97 348.17 527.119C347.983 527.442 347.839 527.997 347.797 528.752C347.729 529.999 347.959 531.467 348.339 532.56C349.098 532.544 349.871 532.729 350.549 533.137L351.17 533.52C351.715 533.866 352.209 534.205 352.654 534.536C353.376 534.022 353.997 533.307 354.327 532.719C354.8 531.132 354.091 529.787 352.77 528.695Z" fill="#666B94" fill-opacity="0.8"/>
<path d="M318.846 425.379C319.613 423.846 322.483 421.196 325.058 422.004C324.709 420.945 325.041 419.789 327.193 418.54C328.781 416.848 331.433 418.186 330.624 423.201C330.92 423.147 331.204 423.109 331.475 423.088C332.356 423.022 333.134 423.126 333.75 423.372C334.328 423.603 334.942 424.04 335.131 424.75L335.156 424.846L335.163 424.946C335.206 425.641 334.911 426.344 334.587 426.92C334.245 427.529 333.776 428.156 333.275 428.744C332.274 429.918 331.055 431.041 330.196 431.683L330.145 431.722L330.088 431.753C328.817 432.469 327.623 432.711 326.567 432.511C325.503 432.31 324.702 431.685 324.196 430.915C323.712 430.178 323.484 429.291 323.527 428.45C321.307 428.28 318.276 427.051 318.777 425.544L318.846 425.379ZM327.695 419.405C326.621 420.028 326.192 420.541 326.033 420.889C325.897 421.185 325.907 421.473 326.067 421.849C326.244 422.265 326.568 422.7 326.982 423.213C327.209 423.496 327.486 423.831 327.732 424.18C328.374 423.871 328.984 423.635 329.559 423.461C329.985 421.271 329.705 419.954 329.312 419.328C329.074 418.949 328.829 418.857 328.67 418.846C328.498 418.834 328.223 418.904 327.922 419.224L327.822 419.332L327.695 419.405ZM324.534 428.94C324.542 429.023 324.554 429.106 324.569 429.188C324.54 429.023 324.523 428.857 324.521 428.693L324.534 428.94ZM325.806 426.488C325.959 426.38 326.11 426.276 326.26 426.176C326.11 426.276 325.958 426.379 325.805 426.487L325.333 426.831L325.806 426.488ZM322.306 423.358C321.159 423.976 320.212 424.998 319.813 425.692L319.741 425.826C319.726 425.856 319.723 425.871 319.723 425.874C319.722 425.876 319.723 425.876 319.723 425.877C319.724 425.88 319.732 425.927 319.801 426.017C319.957 426.219 320.295 426.478 320.832 426.731C321.706 427.143 322.821 427.405 323.714 427.458C323.9 426.915 324.229 426.407 324.734 426.029L325.227 425.671C325.594 425.412 325.955 425.177 326.308 424.961C326.142 424.35 325.837 423.758 325.537 423.377C324.587 422.634 323.472 422.73 322.306 423.358Z" fill="#666B94" fill-opacity="0.8"/>
<path d="M360.088 404.544C361.107 405.022 361.479 406.907 360.62 408.629C361.283 408.443 362.015 408.694 362.83 410.016C363.901 410.969 362.048 414.185 359.725 413.376C359.45 414.217 358.843 414.787 358.21 414.974L358.113 415.002L358.014 415.011C357.099 415.092 356.241 414.6 355.63 414.137C354.975 413.642 354.377 413.005 353.934 412.445L353.894 412.394L353.861 412.338C353.336 411.462 353.125 410.597 353.254 409.797C353.384 408.989 353.841 408.371 354.407 407.977C354.961 407.591 355.636 407.404 356.28 407.432C356.318 407.433 356.356 407.437 356.394 407.441C357.009 405.942 359.102 404.084 360.088 404.544ZM361.979 410.541C361.565 409.87 361.265 409.663 361.125 409.603C361.036 409.565 360.948 409.556 360.765 409.639C360.541 409.742 360.293 409.933 359.958 410.218C359.83 410.327 359.669 410.461 359.495 410.599C359.755 411.235 359.875 411.821 359.878 412.357C360.041 412.436 360.185 412.478 360.309 412.495C360.672 412.545 361.041 412.423 361.384 412.141C361.737 411.851 361.991 411.445 362.093 411.095C362.158 410.873 362.143 410.769 362.133 410.735L362.056 410.666L361.979 410.541ZM359.706 405.475C359.664 405.482 359.568 405.504 359.404 405.585C359.101 405.733 358.729 406.006 358.365 406.366C358.003 406.723 357.689 407.126 357.478 407.498C357.434 407.576 357.397 407.647 357.366 407.713C357.639 407.853 357.894 408.048 358.104 408.313L358.353 408.639C358.479 408.808 358.596 408.975 358.705 409.139C358.958 409.037 359.196 408.902 359.363 408.768C359.916 408.031 360.124 407.211 360.096 406.546C360.068 405.878 359.834 405.571 359.706 405.475Z" fill="#666B94" fill-opacity="0.8"/>
<path d="M274.881 744.796C276.842 744.949 278.651 747.738 278.354 750.999C279.313 750.306 280.661 750.269 282.83 751.894C285.309 752.824 284.104 759.726 279.183 759.065C279.281 760.392 278.732 761.468 278.013 762.002L277.932 762.061L277.842 762.105C276.669 762.655 275.202 762.453 273.957 762.092C272.658 761.714 271.34 761.084 270.301 760.477L270.246 760.446L270.196 760.407C268.888 759.402 268.118 758.286 267.862 757.135C267.604 755.971 267.898 754.897 268.476 754.061C269.038 753.248 269.875 752.645 270.776 752.35C270.363 749.732 272.725 744.808 274.774 744.792L274.881 744.796ZM276.922 761.365C277.002 761.346 277.08 761.324 277.156 761.3C277.08 761.324 277.002 761.346 276.922 761.365ZM277.219 761.278C277.232 761.274 277.245 761.271 277.258 761.266L277.276 761.258C277.257 761.265 277.238 761.272 277.219 761.278ZM282.23 752.694C281.072 751.826 280.297 751.57 279.802 751.548C279.363 751.529 279.026 751.689 278.684 752.029C278.309 752.402 277.988 752.936 277.63 753.583C277.408 753.983 277.15 754.462 276.858 754.896C277.996 755.971 278.661 757.022 278.976 758.013C279.582 758.142 280.093 758.131 280.514 758.039C281.384 757.848 282.05 757.276 282.496 756.501C282.95 755.714 283.136 754.781 283.066 754.022C282.992 753.22 282.685 752.908 282.479 752.83L282.345 752.78L282.23 752.694ZM273.187 753.452C273.386 753.568 273.577 753.684 273.761 753.799L273.188 753.453C273.182 753.449 273.175 753.445 273.168 753.441C273.175 753.445 273.181 753.449 273.187 753.452ZM274.923 745.809L274.803 745.793C274.69 745.785 274.368 745.862 273.871 746.383C273.408 746.87 272.941 747.594 272.558 748.43C272.177 749.262 271.902 750.152 271.787 750.943C271.715 751.44 271.715 751.846 271.759 752.157C272.409 752.112 273.083 752.232 273.693 752.589L274.287 752.948C274.772 753.251 275.214 753.555 275.618 753.857C276.258 753.405 276.804 752.78 277.094 752.269C277.599 750.581 277.404 748.949 276.858 747.734C276.315 746.526 275.534 745.92 274.923 745.809Z" fill="#666B94" fill-opacity="0.8"/>
<path d="M36.2583 798.626C35.1509 798.712 34.122 800.166 34.1045 801.957C33.5939 801.597 32.8649 801.62 31.7063 802.488C30.1553 803.07 31.2818 805.757 34.0416 806.484C33.9813 806.621 33.9314 806.754 33.894 806.886C33.6097 807.885 33.9769 808.697 34.4466 809.046L34.4804 809.072L34.5199 809.09C35.1751 809.397 36.0186 809.291 36.7747 809.072C37.554 808.845 38.349 808.466 38.978 808.098L39.0014 808.085L39.0228 808.068C39.8024 807.469 40.2432 806.818 40.3884 806.165C40.5345 805.507 40.3684 804.9 40.04 804.425C39.7155 803.955 39.2288 803.607 38.7073 803.44C38.4729 803.365 38.2239 803.327 37.9745 803.332C38.5774 801.847 37.6243 798.52 36.2583 798.626ZM32.2192 803.171C32.916 802.65 33.2881 802.584 33.439 802.593C33.5344 802.598 33.6511 802.638 33.8263 802.882C34.0181 803.15 34.1735 803.515 34.3711 803.981C34.4929 804.269 34.6503 804.644 34.8586 804.976L34.8062 805.341C34.6936 805.466 34.5916 805.59 34.4998 805.712C33.4008 805.487 32.6139 804.906 32.1962 804.33C31.9224 803.952 31.8504 803.642 31.8603 803.476C31.8665 803.374 31.8886 803.332 32.0071 803.288L32.1215 803.245L32.2192 803.171ZM39.0481 804.064C39.0937 804.092 39.138 804.123 39.1817 804.154C39.1361 804.121 39.0896 804.09 39.0419 804.061L39.0481 804.064ZM36.3178 799.479C36.3403 799.485 36.4198 799.519 36.551 799.678C36.7359 799.903 36.924 800.267 37.0681 800.725C37.2098 801.175 37.2929 801.665 37.3035 802.107C37.3145 802.565 37.2461 802.893 37.1568 803.07L37.0397 803.291C36.9073 803.526 36.7838 803.698 36.6754 803.824C36.5068 803.93 36.3475 804.037 36.1961 804.143C36.1564 804.143 36.119 804.137 36.08 804.125C35.9467 804.081 35.7668 803.963 35.567 803.748C35.3918 803.559 35.239 803.332 35.122 803.121C34.8387 802.151 34.9531 801.218 35.2629 800.529C35.5981 799.784 36.0569 799.504 36.3178 799.479Z" fill="#666B94" fill-opacity="0.8"/>
<path d="M51.9995 803.001C53.9191 803.151 55.7938 804.278 55.0931 807.324C56.0315 806.809 57.346 806.887 59.5005 808.501C61.6801 809.319 59.6821 811.614 55.7745 812.347C55.833 812.496 55.8856 812.642 55.9271 812.788C56.3781 814.374 55.8086 815.721 54.9874 816.331L54.9073 816.391L54.8163 816.433C53.6241 816.993 52.3245 816.529 51.3656 816.057C50.3887 815.577 49.2706 814.817 48.4946 814.363L48.4399 814.332L48.3907 814.293C47.2694 813.431 46.5444 812.558 46.2868 811.646C46.0061 810.651 46.3289 809.798 46.879 809.183C47.3939 808.607 48.1086 808.227 48.7479 807.993C49.3923 807.756 50.0772 807.624 50.6224 807.624L50.8671 807.624C50.0027 805.655 50.0508 803.028 51.815 802.995L51.9995 803.001ZM48.9992 813.5C49.0647 813.538 49.1298 813.579 49.1963 813.619C49.1301 813.579 49.0654 813.538 49.0002 813.5C48.9871 813.49 48.9745 813.48 48.9616 813.47C48.9743 813.48 48.9864 813.49 48.9992 813.5ZM48.5759 813.153C48.6046 813.177 48.6332 813.203 48.6628 813.228C48.6332 813.203 48.6046 813.177 48.5759 813.153ZM48.3065 812.912C48.3217 812.926 48.3381 812.94 48.3536 812.954C48.3298 812.932 48.3062 812.91 48.2832 812.888L48.3065 812.912ZM56.5938 808.084C56.1092 807.984 55.7945 808.07 55.5394 808.219C55.2447 808.391 54.9661 808.685 54.6433 809.11C54.4805 809.325 54.2708 809.62 54.0525 809.912C54.578 810.419 54.988 810.922 55.2988 811.415C56.8821 811.16 58.1043 810.634 58.8141 810.104C59.1686 809.839 59.3075 809.639 59.3626 809.539C59.3164 809.51 59.2475 809.474 59.1488 809.437L59.0154 809.386L58.9008 809.301C57.8626 808.524 57.1174 808.192 56.5938 808.084ZM49.5094 808.796C49.4901 808.801 49.471 808.808 49.4516 808.814C49.5403 808.788 49.6283 808.764 49.7151 808.744L49.5094 808.796ZM53.859 804.831C53.4846 804.361 52.7965 804.066 51.9217 803.998C51.6885 803.98 51.616 804.044 51.5734 804.09C51.4955 804.175 51.3882 804.374 51.3409 804.751C51.2458 805.51 51.4488 806.579 51.8936 807.463L51.8926 807.463C52.2115 808.097 52.48 808.512 52.6907 808.777C52.8258 808.875 52.9565 808.973 53.0825 809.072C53.1565 808.995 53.2635 808.866 53.3969 808.652C53.6034 808.322 53.7855 807.952 54.0005 807.539C54.4548 806.036 54.1924 805.249 53.859 804.831Z" fill="#666B94" fill-opacity="0.8"/>
<path d="M117.5 89.5C117.5 89.5 156 71 138.5 40.5C120.556 9.22665 120.5 -18.5 138.5 -20.5" stroke="#666B94" stroke-opacity="0.8" stroke-linecap="round" stroke-dasharray="3 7 5 9"/>
<path d="M290.5 765C304.833 770.333 331.3 772 322.5 736C318.667 720 331.6 701.2 414 754" stroke="#636897" stroke-linecap="round" stroke-dasharray="3 5 6 7"/>
<path d="M96 137C106 157 59.7999 167.5 76.9999 187.5C91.5824 204.456 115.5 210.5 129 162.855C142 107.5 190.824 134.5 196 169C208.829 254.5 72.5 299 110 422" stroke="#666B94" stroke-opacity="0.8" stroke-linecap="round" stroke-dasharray="5 8 6 11"/>
<path d="M93.5 244C117 252 158.1 278.6 134.5 321C105 374 29.5 387 3.5 388.5" stroke="#666B94" stroke-opacity="0.8" stroke-linecap="round" stroke-dasharray="3 8 6 11"/>
<path d="M356.5 420.5C350.5 483 407.5 513.5 407.5 621.5C407.5 698 384 732.639 337 772.5C297.5 806 266.5 850.5 404.5 806" stroke="#636897" stroke-linecap="round" stroke-dasharray="3 6 4 7"/>
<path d="M305.5 390C288.5 373.5 258.5 332.3 190.5 343.5" stroke="#636897" stroke-linecap="round" stroke-dasharray="3 5 6 7"/>
<path d="M34 161.5C34 168.015 16.5 168.5 14.5 182.5C12.5 196.5 -5 213 -16 211.5" stroke="#666B94" stroke-opacity="0.8" stroke-linecap="round" stroke-dasharray="4 6 7 5"/>
<path d="M258.5 163C279 146.167 314.1 127 290.5 185C261 257.5 237.5 254 237.5 218.5C237.5 183 222 149.5 180 276" stroke="#666B94" stroke-opacity="0.8" stroke-linecap="round" stroke-dasharray="5 8 4 11"/>
<path d="M202.501 -21C201.521 -8.75724 202.5 41.5 242 17.5C288.5 -4.5 282.512 50.7881 331.5 36.5C369 30.5 435.501 -10 389.001 125.5" stroke="#666B94" stroke-opacity="0.8" stroke-linecap="round" stroke-dasharray="5 8 4 11"/>
<path d="M247.5 614C321 517 310.5 477.73 295.001 467.5C270 451 225 521 207.5 474C182.879 407.875 273.5 371.464 336 367C385 363.5 394.782 357.5 385 303C378 264 367 213 369 182.5C370.476 160 383.4 150.4 409 160" stroke="#666B94" stroke-opacity="0.8" stroke-linecap="round" stroke-dasharray="7 6 10 12"/>
<path d="M321.5 201.5C349 208 380.5 176 421 167.5" stroke="#666B94" stroke-opacity="0.8" stroke-linecap="round" stroke-dasharray="3 6 4 7"/>
<path d="M362 546C393.5 546 372.6 584.2 407 585" stroke="#636897" stroke-linecap="round" stroke-dasharray="4 8 6 8"/>
<path d="M61 816C97 822 157.6 828.5 86 854.5C-3.50002 887 37.5 857 26.5 844.5C15.5 832 3 827 -28 827" stroke="#636897" stroke-linecap="round" stroke-dasharray="4 8 6 8"/>
<path d="M-24.5 499.5C6.5 469 169 494.6 83 443" stroke="#636897" stroke-linecap="round" stroke-dasharray="4 8 6 8"/>
<path d="M322.5 436.5C283 457 335.5 487.5 420 434" stroke="#636897" stroke-linecap="round" stroke-dasharray="2 5 5 7"/>
<path d="M26.5 807.5C21.6667 807.333 -1.06405 810 4.5 794.5C13.0324 770.731 98 785.5 135.5 807.5" stroke="#636897" stroke-linecap="round" stroke-dasharray="5 9 7 10"/>
</svg>
