<svg xmlns="http://www.w3.org/2000/svg" width="393" height="870" fill="none">
  <path fill="#666B94" fill-opacity=".8" d="M85.646 227.24c1.8608-.257 3.4426 2.057 3.257 5.551 1.599-1.059 3.9151-1.594 6.8087-.107 1.1919.6 1.9314 3.201-5.3942 5.401.0606.464-.0388.886-.2021 1.236-.1533.328-.3735.615-.5401.818l-.2076.248-.0775.063c-.4121.332-.8532.562-1.3467.637-.4937.075-.9327-.022-1.3041-.157-.3482-.127-.7131-.318-1.0272-.476-.3364-.168-.6877-.338-1.0992-.49l-.0633-.023-.0604-.032c-1.2173-.646-2.0803-1.332-2.6045-2.042-.5296-.716-.7675-1.546-.496-2.339.2661-.776.9287-1.243 1.6093-1.441.3116-.09.6447-.129.9865-.121-.1821-2.407-.1184-6.207 1.5826-6.689l.1788-.037Zm3.2332 12.167c-.0733.093-.1478.181-.217.264-.0584.047-.1168.088-.1728.126l.1738-.126c.1038-.125.2191-.26.3248-.407l-.1088.143Zm-5.1358-1.058c.0489.035.1005.067.1521.102-.0759-.051-.1489-.102-.2193-.152l.0672.05Zm-1.2438-1.207c.0416.063.0871.127.1375.191-.0502-.065-.096-.128-.1375-.191Zm-.1551-.265c.0387.08.0864.159.1399.242-.0965-.149-.1697-.293-.2195-.432l.0796.19Zm12.9106-3.303c-2.1213-1.09-3.7964-.929-5.035-.373-.7121.32-1.3058.783-1.7657 1.261-.1058.22-.2267.433-.3609.632l1.1563 1.236c.2386.206.4411.42.6051.646l.1487.159c3.5284-1.057 4.887-2.135 5.31-2.802.1945-.307.1618-.474.1431-.534-.0211-.068-.0682-.133-.1289-.18l-.0652-.042-.0075-.003Zm-10.7886 1.471c.0127.003.0254.007.0382.01a3.70855 3.70855 0 0 0-.1985-.045l.1603.035Zm1.3162-6.815c-.0777.011-.2171.057-.395.375-.1866.333-.3391.844-.4387 1.507-.1825 1.214-.152 2.682-.0617 3.837.0637.084.1264.162.1868.236.0213.007.0431.013.0644.021l.5531.209c.4214.164.8074.326 1.1606.486.193-.316.4463-.659.7561-.999.1036-.233.1927-.472.2604-.701.171-1.722-.1236-3.078-.5997-3.935-.426-.767-.9122-1.03-1.3174-1.044l-.1689.008ZM35.5091 139.843c-2.1091.478-2.8736 3.614-1.2547 7.304-2.1526-.492-4.8647-.128-7.3787 2.649-1.0233 1.111.0442 4.76 8.4771 4.342.1062.16.2251.303.353.428.3809.372.8569.624 1.1082.766l.0858.049.0944.031c.5615.184 1.1025.249 1.6314.136.5288-.112.939-.379 1.2729-.666.3154-.271.6238-.617.9019-.917.2949-.32.6091-.65.9976-.986l.051-.044.0452-.052c1.0408-1.181 1.677-2.25 1.9456-3.197.2709-.956.1861-1.891-.3866-2.584-.562-.68-1.4116-.906-2.1908-.845-.3614.028-.7264.119-1.0828.265.0348-.101.0699-.205.103-.312l.1339-.465c-.7317-2.638-2.5596-6.178-4.6996-5.937l-.2078.035Zm2.6604 14.757c-.0574.003-.1166.002-.1777-.001.0611.003.1203.004.1777.001Zm-.2393-.006c-.0452-.003-.0912-.009-.1385-.016.0473.007.0933.013.1385.016Zm-.191-.025Zm-.2247-.048c-.0144-.004-.0295-.005-.0441-.01l-.164-.049c.0715.023.1412.042.2081.059Zm3.6292-2.298c-.318.275-.5887.544-.8295.797l.3848-.391c.1376-.133.285-.269.4442-.407.1232-.14.24-.276.3494-.41l-.3489.411Zm1.3628-1.911c-.0095.018-.0184.037-.0282.055.0098-.018.0187-.037.0282-.055Zm.1692-.353c-.0168.038-.0332.077-.0515.117.0183-.04.0347-.079.0515-.117Zm.1094-.271Zm.0875-.269c-.0082.029-.0172.058-.0263.087.0091-.029.0181-.058.0263-.087Zm.0614-.253c-.0064.032-.0139.064-.0215.096.0076-.032.0151-.064.0215-.096Zm-15.3174 1.301c1.8734-2.069 3.7882-2.593 5.3953-2.494.8162.05 1.5749.265 2.2288.548.3534.304.7574.554 1.1848.705l-.1345.717c-.1154.142-.223.28-.3214.414-.6226.851-.9765 1.64-1.0057 2.39-.0055.142.002.278.0183.407-3.7046.14-5.6924-.56-6.6429-1.276-.5242-.395-.7132-.776-.766-1.02-.0553-.256.0261-.372.0376-.385l.0057-.006Zm15.3544-1.531c-.0024.021-.0069.042-.0098.063.0029-.021.0074-.042.0098-.063Zm-8.5378-6.272c.1635-1.106.6567-1.646 1.1898-1.816l.1065-.03c.4625-.105 1.1442.185 1.971 1.346.7158 1.004 1.3085 2.365 1.6744 3.586-.2838.978-.6148 1.598-.9358 1.989-.1621.146-.317.29-.4659.429-.2236.146-.4254.2-.583.213-.1255.01-.2578-.002-.3941-.031-.3483-.24-.756-.476-1.2109-.683-.1337-.126-.2621-.265-.3787-.416-.8995-1.812-1.1442-3.43-.9733-4.587ZM114.713 83.8592c-1.014-1.2875-3.412-.7857-5.408 1.5313-.427-.7828-1.437-1.5163-3.545-2.15-1.074-.3325-3.74-.2976-.991 4.9085-.122.1754-.212.3605-.274.5428-.143.4171-.161.86-.176 1.0671l-.007.0991.013.0979c.06.4724.202.9075.484 1.2757.282.3683.637.5831.963.7277.304.1347.657.2386.945.3283.234.0729.47.1493.718.2465l.253.1044.061.0277.066.0188c1.164.3328 2.14.429 2.923.2966.792-.1339 1.487-.5296 1.819-1.2407.266-.5711.213-1.1705.008-1.6773 1.448-1.6395 2.985-4.7656 2.239-6.0683l-.091-.1361Zm-6.622 7.8644a8.08091 8.08091 0 0 0-.534-.2121c.17.0606.347.1299.533.2115.135.0387.267.074.394.1052l-.393-.1046Zm-2.619-7.5264c2.166.6512 2.799 1.3244 2.993 1.7509.162.3563.136.7538-.008 1.3688l-.388.1029c-.117-.0275-.23-.0526-.339-.0733-.805-.153-1.513-.1471-2.099.1034-.026.0114-.051.0261-.076.0383-.473-.9184-.747-1.6248-.883-2.1614-.191-.7579-.08-1.0407-.049-1.0978.01-.0177.036-.0708.216-.0962.196-.0277.441.0049.625.0619l.008.0025Zm6.029 7.3491c-.032.0356-.067.0692-.105.1017l.104-.1023c.031-.0353.06-.0716.085-.1096l-.084.1102Zm-1.702-2.4994c-.001-.0009-.001-.0017-.002-.0026.072.0288.144.0579.218.0886l.34.1462c-.192-.0837-.378-.1598-.556-.2322Zm4.128-4.5687c.02.0254.114.1972.05.6841-.059.4567-.239 1.0295-.518 1.6501-.398.8822-.944 1.7429-1.465 2.3777-.303-.3184-.683-.5849-1.117-.7756l-.475-.2036c-.306-.1277-.596-.2413-.87-.342-.002-.1602.004-.3241.022-.488.049-.4462.166-.8244.284-1.0662.915-1.1545 1.892-1.8021 2.672-2.0409.703-.2152 1.115-.083 1.334.116l.083.0884ZM376.383 125.169c-1.872.568-2.357 3.452-.648 6.677-1.056.136-2.31.936-3.929 3.004-.845 1.059-1.979 4.088 5.243 3.207.119.161.251.302.392.42.378.32.836.523 1.067.633l.089.042.097.024c.528.133 1.037.158 1.527.017.49-.142.856-.419 1.145-.706.271-.269.531-.605.76-.891.244-.306.502-.619.826-.942l.049-.048.04-.054c.866-1.136 1.379-2.153 1.564-3.042.187-.898.05-1.77-.539-2.388-.449-.471-1.041-.665-1.621-.678-1.132-2.34-4.051-5.59-5.873-5.317l-.189.042Zm-3.791 10.297c1.673-2.135 2.741-2.604 3.386-2.64.214-.012.419.018.629.087.314.247.689.483 1.099.678l-.066.58c-.09.129-.175.254-.252.377-.51.813-.789 1.564-.767 2.269.003.097.013.191.026.281-1.332.148-2.312.148-3.02.059-.952-.12-1.273-.379-1.366-.492-.066-.08-.111-.2-.052-.448.047-.199.148-.408.262-.583l.116-.161.005-.007Zm8.757-3.75-.187.109c-.063.039-.125.081-.186.126l.185-.127c.062-.039.125-.075.188-.108Zm-4.761-5.56.085-.03c.11-.033.401-.035.932.257.504.277 1.077.74 1.653 1.328.879.897 1.658 1.98 2.145 2.897-.533.181-1.047.502-1.487.94l-.43.437c-.308.319-.587.622-.838.91a3.6404 3.6404 0 0 1-.199-.072c-.426-.309-.861-.596-1.327-.783-.108-.091-.203-.177-.279-.26-.913-1.556-1.227-2.972-1.149-3.998.074-.982.47-1.457.894-1.626ZM237.118 164.113c1.148-2.159 4.911-1.956 8.438 1.163.49-2.112 2.155-4.501 5.797-6.35 1.474-.762 7.493.906.552 9.249.526.563.787 1.235.91 1.718l.024.096.005.099c.032.628-.053 1.194-.312 1.698-.259.503-.643.845-1.03 1.108-.367.248-.81.469-1.205.675-.417.217-.854.452-1.318.764l-.056.038-.061.03c-3.017 1.481-5.482 1.398-6.804.049-1.021-1.042-1.03-2.481-.301-3.618-2.521-1.531-5.581-4.384-4.735-6.513l.096-.206Zm14.688-4.295c-4.209 2.136-5.414 4.887-5.407 6.856.121.326.204.663.235 1 1.423-.548 2.574-.673 3.518-.471.367.078.684.205.961.358 1.558-1.867 2.4-3.331 2.789-4.448.431-1.232.292-1.968.067-2.389-.232-.437-.659-.729-1.153-.872-.244-.07-.481-.096-.677-.091-.097.003-.177.013-.237.026-.029.007-.051.014-.067.019l-.021.008-.008.004Zm-9.302 11.699c-.038.07-.071.14-.101.211l.101-.212c.038-.069.08-.137.126-.204l-.126.205Zm-2.132-7.804c-1.217-.146-1.956.218-2.306.759l-.066.11c-.266.5-.126 1.331.851 2.525.856 1.046 2.124 2.061 3.304 2.794.169-.003.33-.01.484-.019.062-.047.125-.093.19-.137l.612-.401c.775-.494 1.493-.898 2.159-1.219-.114-.387-.185-.811-.202-1.263-.118-.277-.276-.552-.47-.807-1.644-1.464-3.279-2.189-4.556-2.342ZM317.271 191.549c-1.197-.91-3.248.173-4.415 2.824-.818-1.054-2.364-1.959-4.875-2.053-1-.046-3.838 2.337 1.728 5.137-.195.55-.161 1.09-.097 1.437l.018.097.037.092c.161.402.389.761.732 1.029.343.267.714.377 1.035.429.297.049.63.059.891.072.286.013.573.032.891.083l.067.01.068.002c2.119.051 3.709-.644 4.186-1.98.375-1.049-.09-2.018-.919-2.55.931-1.504 1.712-3.633.761-4.538l-.108-.091Zm-4.153 8.124c-.188-.023-.364-.035-.529-.045.16.01.331.021.513.042l.016.003Zm1.921-.129c-.449.118-1.001.181-1.664.165h.36c.506-.01.939-.07 1.304-.165Zm.206-.059c-.058.019-.117.035-.179.052.062-.017.121-.033.179-.052Zm-7.301-6.166c2.894.109 4.106 1.351 4.496 2.326-.794.099-1.415.327-1.886.681-.118.088-.22.182-.313.277-1.169-.58-1.897-1.108-2.328-1.554-.507-.525-.556-.872-.547-1.029.01-.175.106-.357.288-.515.163-.142.287-.174.303-.183l-.022-.003.009.001v-.001Zm8.723-.974c.073.055.269.326.035 1.227-.186.72-.583 1.533-1.013 2.204-.018.007-.036.014-.053.021-.014-.003-.029-.007-.043-.009l-.451-.068c-.483-.066-.931-.105-1.346-.122-.065-.222-.084-.517-.017-.839.516-1.164 1.188-1.908 1.772-2.267.528-.325.861-.288 1.046-.191l.07.044ZM318.92 392.836c-.195-1.287-1.888-1.947-4.081-1.396.475-1.021.453-2.28-.991-3.792-.865-1.764-6.336-1.757-4.461 4.155-.527.258-.882.671-1.079.966l-.055.083-.038.091c-.397.967-.13 1.897.231 2.619.355.709.902 1.413 1.33 1.987l.04.055.047.048c.782.797 1.589 1.289 2.396 1.436.841.153 1.596-.088 2.147-.582.581-.523.902-1.303.906-2.096 1.687-.69 3.644-2.203 3.62-3.431l-.012-.143Zm-8.999 3.222c.102.145.207.29.315.435l.01.015c-.111-.15-.22-.3-.325-.45Zm3.204-7.718c.619.647.869 1.17.953 1.564.082.382.026.729-.127 1.076-.161.363-.428.718-.756 1.074-.162.175-.309.323-.454.464-.69-.551-1.341-.854-1.969-.934-.142-.018-.277-.022-.407-.019-.385-1.185-.423-2.021-.311-2.584.128-.639.452-.976.811-1.16.395-.201.897-.246 1.349-.145.483.109.694.325.737.413l.068.138.106.113Zm4.807 4.646c.002.019.007.168-.203.476-.2.292-.526.624-.95.954-.512.398-1.099.739-1.644.982-.089-.242-.212-.475-.372-.69l-.277-.362c-.297-.379-.587-.716-.87-1.014.17-.269.378-.494.567-.628 1.18-.474 2.177-.539 2.846-.39.606.136.819.394.883.592l.02.08ZM348.669 525.844c2.124.166 6.52 2.229 6.796 5.571 1.056-.896 2.543-1.052 4.986.841 3.017 1.162 3.903 6.941-4.511 7.93-.248.89-.866 1.508-1.318 1.849l-.08.06-.09.043c-1.264.605-2.583.358-3.722-.09-1.132-.446-2.296-1.177-3.318-1.793l-.055-.033-.051-.041c-1.346-1.071-2.174-2.167-2.499-3.252-.337-1.125-.105-2.164.51-2.948.498-.634 1.218-1.072 2.015-1.281-.867-2.684-.863-6.879 1.223-6.861l.114.005Zm11.169 7.203c-1.238-.96-2.077-1.248-2.623-1.271-.491-.022-.881.165-1.274.56-.424.427-.786 1.032-1.183 1.746-.253.456-.542.994-.865 1.472 1.185 1.087 1.83 2.094 2.059 3.042.048.198.074.388.087.57 3.695-.479 5.075-1.904 5.435-2.992.414-1.25-.293-2.565-1.383-2.985l-.137-.053-.116-.089Zm-13.178 1.038c-.09.061-.174.129-.254.199.089-.079.184-.153.285-.22l-.031.021Zm5.014.977c-.152-.108-.309-.217-.474-.327.165.11.322.219.474.327Zm-1.641-1.068c.421.254.81.5 1.167.741-.178-.12-.363-.242-.557-.365l-.61-.377c-.082-.05-.167-.094-.253-.135l.253.136Zm2.737-5.299c-1.282-1.059-2.947-1.693-3.982-1.833l-.198-.021c-.116-.009-.173.014-.21.036-.046.028-.123.093-.21.242-.187.323-.331.878-.373 1.633-.068 1.247.162 2.715.542 3.808.759-.016 1.532.169 2.21.577l.621.383c.545.346 1.039.685 1.484 1.016.722-.514 1.343-1.229 1.673-1.817.473-1.587-.236-2.932-1.557-4.024ZM318.846 425.379c.767-1.533 3.637-4.183 6.212-3.375-.349-1.059-.017-2.215 2.135-3.464 1.588-1.692 4.24-.354 3.431 4.661.296-.054.58-.092.851-.113.881-.066 1.659.038 2.275.284.578.231 1.192.668 1.381 1.378l.025.096.007.1c.043.695-.252 1.398-.576 1.974-.342.609-.811 1.236-1.312 1.824-1.001 1.174-2.22 2.297-3.079 2.939l-.051.039-.057.031c-1.271.716-2.465.958-3.521.758-1.064-.201-1.865-.826-2.371-1.596-.484-.737-.712-1.624-.669-2.465-2.22-.17-5.251-1.399-4.75-2.906l.069-.165Zm8.849-5.974c-1.074.623-1.503 1.136-1.662 1.484-.136.296-.126.584.034.96.177.416.501.851.915 1.364.227.283.504.618.75.967.642-.309 1.252-.545 1.827-.719.426-2.19.146-3.507-.247-4.133-.238-.379-.483-.471-.642-.482-.172-.012-.447.058-.748.378l-.1.108-.127.073Zm-3.161 9.535c.008.083.02.166.035.248-.029-.165-.046-.331-.048-.495l.013.247Zm1.272-2.452c.153-.108.304-.212.454-.312-.15.1-.302.203-.455.311l-.472.344.473-.343Zm-3.5-3.13c-1.147.618-2.094 1.64-2.493 2.334l-.072.134c-.015.03-.018.045-.018.048-.001.002 0 .002 0 .003.001.003.009.05.078.14.156.202.494.461 1.031.714.874.412 1.989.674 2.882.727.186-.543.515-1.051 1.02-1.429l.493-.358c.367-.259.728-.494 1.081-.71-.166-.611-.471-1.203-.771-1.584-.95-.743-2.065-.647-3.231-.019ZM360.088 404.544c1.019.478 1.391 2.363.532 4.085.663-.186 1.395.065 2.21 1.387 1.071.953-.782 4.169-3.105 3.36-.275.841-.882 1.411-1.515 1.598l-.097.028-.099.009c-.915.081-1.773-.411-2.384-.874-.655-.495-1.253-1.132-1.696-1.692l-.04-.051-.033-.056c-.525-.876-.736-1.741-.607-2.541.13-.808.587-1.426 1.153-1.82.554-.386 1.229-.573 1.873-.545.038.001.076.005.114.009.615-1.499 2.708-3.357 3.694-2.897Zm1.891 5.997c-.414-.671-.714-.878-.854-.938-.089-.038-.177-.047-.36.036-.224.103-.472.294-.807.579-.128.109-.289.243-.463.381.26.636.38 1.222.383 1.758.163.079.307.121.431.138.363.05.732-.072 1.075-.354.353-.29.607-.696.709-1.046.065-.222.05-.326.04-.36l-.077-.069-.077-.125Zm-2.273-5.066c-.042.007-.138.029-.302.11-.303.148-.675.421-1.039.781-.362.357-.676.76-.887 1.132-.044.078-.081.149-.112.215.273.14.528.335.738.6l.249.326c.126.169.243.336.352.5.253-.102.491-.237.658-.371.553-.737.761-1.557.733-2.222-.028-.668-.262-.975-.39-1.071ZM274.881 744.796c1.961.153 3.77 2.942 3.473 6.203.959-.693 2.307-.73 4.476.895 2.479.93 1.274 7.832-3.647 7.171.098 1.327-.451 2.403-1.17 2.937l-.081.059-.09.044c-1.173.55-2.64.348-3.885-.013-1.299-.378-2.617-1.008-3.656-1.615l-.055-.031-.05-.039c-1.308-1.005-2.078-2.121-2.334-3.272-.258-1.164.036-2.238.614-3.074.562-.813 1.399-1.416 2.3-1.711-.413-2.618 1.949-7.542 3.998-7.558l.107.004Zm2.041 16.569c.08-.019.158-.041.234-.065-.076.024-.154.046-.234.065Zm.297-.087c.013-.004.026-.007.039-.012l.018-.008c-.019.007-.038.014-.057.02Zm5.011-8.584c-1.158-.868-1.933-1.124-2.428-1.146-.439-.019-.776.141-1.118.481-.375.373-.696.907-1.054 1.554-.222.4-.48.879-.772 1.313 1.138 1.075 1.803 2.126 2.118 3.117.606.129 1.117.118 1.538.026.87-.191 1.536-.763 1.982-1.538.454-.787.64-1.72.57-2.479-.074-.802-.381-1.114-.587-1.192l-.134-.05-.115-.086Zm-9.043.758c.199.116.39.232.574.347l-.573-.346c-.006-.004-.013-.008-.02-.012.007.004.013.008.019.011Zm1.736-7.643-.12-.016c-.113-.008-.435.069-.932.59-.463.487-.93 1.211-1.313 2.047-.381.832-.656 1.722-.771 2.513-.072.497-.072.903-.028 1.214.65-.045 1.324.075 1.934.432l.594.359c.485.303.927.607 1.331.909.64-.452 1.186-1.077 1.476-1.588.505-1.688.31-3.32-.236-4.535-.543-1.208-1.324-1.814-1.935-1.925ZM36.2583 798.626c-1.1074.086-2.1363 1.54-2.1538 3.331-.5106-.36-1.2396-.337-2.3982.531-1.551.582-.4245 3.269 2.3353 3.996-.0603.137-.1102.27-.1476.402-.2843.999.0829 1.811.5526 2.16l.0338.026.0395.018c.6552.307 1.4987.201 2.2548-.018.7793-.227 1.5743-.606 2.2033-.974l.0234-.013.0214-.017c.7796-.599 1.2204-1.25 1.3656-1.903.1461-.658-.02-1.265-.3484-1.74-.3245-.47-.8112-.818-1.3327-.985-.2344-.075-.4834-.113-.7328-.108.6029-1.485-.3502-4.812-1.7162-4.706Zm-4.0391 4.545c.6968-.521 1.0689-.587 1.2198-.578.0954.005.2121.045.3873.289.1918.268.3472.633.5448 1.099.1218.288.2792.663.4875.995l-.0524.365c-.1126.125-.2146.249-.3064.371-1.099-.225-1.8859-.806-2.3036-1.382-.2738-.378-.3458-.688-.3359-.854.0062-.102.0283-.144.1468-.188l.1144-.043.0977-.074Zm6.8289.893c.0456.028.0899.059.1336.09a2.09221 2.09221 0 0 0-.1398-.093l.0062.003Zm-2.7303-4.585c.0225.006.102.04.2332.199.1849.225.373.589.5171 1.047.1417.45.2248.94.2354 1.382.011.458-.0574.786-.1467.963l-.1171.221c-.1324.235-.2559.407-.3643.533-.1686.106-.3279.213-.4793.319-.0397 0-.0771-.006-.1161-.018-.1333-.044-.3132-.162-.513-.377-.1752-.189-.328-.416-.445-.627-.2833-.97-.1689-1.903.1409-2.592.3352-.745.794-1.025 1.0549-1.05ZM51.9995 803.001c1.9196.15 3.7943 1.277 3.0936 4.323.9384-.515 2.2529-.437 4.4074 1.177 2.1796.818.1816 3.113-3.726 3.846.0585.149.1111.295.1526.441.451 1.586-.1185 2.933-.9397 3.543l-.0801.06-.091.042c-1.1922.56-2.4918.096-3.4507-.376-.9769-.48-2.095-1.24-2.871-1.694l-.0547-.031-.0492-.039c-1.1213-.862-1.8463-1.735-2.1039-2.647-.2807-.995.0421-1.848.5922-2.463.5149-.576 1.2296-.956 1.8689-1.19.6444-.237 1.3293-.369 1.8745-.369h.2447c-.8644-1.969-.8163-4.596.9479-4.629l.1845.006ZM48.9992 813.5c.0655.038.1306.079.1971.119-.0662-.04-.1309-.081-.1961-.119-.0131-.01-.0257-.02-.0386-.03.0127.01.0248.02.0376.03Zm-.4233-.347c.0287.024.0573.05.0869.075-.0296-.025-.0582-.051-.0869-.075Zm-.2694-.241c.0152.014.0316.028.0471.042a5.67309 5.67309 0 0 1-.0704-.066l.0233.024Zm8.2873-4.828c-.4846-.1-.7993-.014-1.0544.135-.2947.172-.5733.466-.8961.891-.1628.215-.3725.51-.5908.802.5255.507.9355 1.01 1.2463 1.503 1.5833-.255 2.8055-.781 3.5153-1.311.3545-.265.4934-.465.5485-.565-.0462-.029-.1151-.065-.2138-.102l-.1334-.051-.1146-.085c-1.0382-.777-1.7834-1.109-2.307-1.217Zm-7.0844.712c-.0193.005-.0384.012-.0578.018.0887-.026.1767-.05.2635-.07l-.2057.052Zm4.3496-3.965c-.3744-.47-1.0625-.765-1.9373-.833-.2332-.018-.3057.046-.3483.092-.0779.085-.1852.284-.2325.661-.0951.759.1079 1.828.5527 2.712h-.001c.3189.634.5874 1.049.7981 1.314.1351.098.2658.196.3918.295.074-.077.181-.206.3144-.42.2065-.33.3886-.7.6036-1.113.4543-1.503.1919-2.29-.1415-2.708Z"/>
  <path stroke="#666B94" stroke-dasharray="3 7 5 9" stroke-linecap="round" stroke-opacity=".8" d="M117.5 89.5s38.5-18.5 21-49c-17.944-31.27335-18-59 0-61"/>
  <path stroke="#636897" stroke-dasharray="3 5 6 7" stroke-linecap="round" d="M290.5 765c14.333 5.333 40.8 7 32-29-3.833-16 9.1-34.8 91.5 18"/>
  <path stroke="#666B94" stroke-dasharray="5 8 6 11" stroke-linecap="round" stroke-opacity=".8" d="M96 137c10 20-36.2001 30.5-19.0001 50.5C91.5824 204.456 115.5 210.5 129 162.855 142 107.5 190.824 134.5 196 169c12.829 85.5-123.5 130-86 253"/>
  <path stroke="#666B94" stroke-dasharray="3 8 6 11" stroke-linecap="round" stroke-opacity=".8" d="M93.5 244c23.5 8 64.6 34.6 41 77-29.5 53-105 66-131 67.5"/>
  <path stroke="#636897" stroke-dasharray="3 6 4 7" stroke-linecap="round" d="M356.5 420.5c-6 62.5 51 93 51 201 0 76.5-23.5 111.139-70.5 151-39.5 33.5-70.5 78 67.5 33.5"/>
  <path stroke="#636897" stroke-dasharray="3 5 6 7" stroke-linecap="round" d="M305.5 390c-17-16.5-47-57.7-115-46.5"/>
  <path stroke="#666B94" stroke-dasharray="4 6 7 5" stroke-linecap="round" stroke-opacity=".8" d="M34 161.5c0 6.515-17.5 7-19.5 21S-5 213-16 211.5"/>
  <path stroke="#666B94" stroke-dasharray="5 8 4 11" stroke-linecap="round" stroke-opacity=".8" d="M258.5 163c20.5-16.833 55.6-36 32 22-29.5 72.5-53 69-53 33.5S222 149.5 180 276M202.501-21c-.98 12.24276-.001 62.5 39.499 38.5 46.5-22 40.512 33.2881 89.5 19 37.5-6 104.001-46.5 57.501 89"/>
  <path stroke="#666B94" stroke-dasharray="7 6 10 12" stroke-linecap="round" stroke-opacity=".8" d="M247.5 614c73.5-97 63-136.27 47.501-146.5C270 451 225 521 207.5 474c-24.621-66.125 66-102.536 128.5-107 49-3.5 58.782-9.5 49-64-7-39-18-90-16-120.5 1.476-22.5 14.4-32.1 40-22.5"/>
  <path stroke="#666B94" stroke-dasharray="3 6 4 7" stroke-linecap="round" stroke-opacity=".8" d="M321.5 201.5c27.5 6.5 59-25.5 99.5-34"/>
  <path stroke="#636897" stroke-dasharray="4 8 6 8" stroke-linecap="round" d="M362 546c31.5 0 10.6 38.2 45 39M61 816c36 6 96.6 12.5 25 38.5-89.50002 32.5-48.5 2.5-59.5-10S3 827-28 827M-24.5 499.5C6.5 469 169 494.6 83 443"/>
  <path stroke="#636897" stroke-dasharray="2 5 5 7" stroke-linecap="round" d="M322.5 436.5c-39.5 20.5 13 51 97.5-2.5"/>
  <path stroke="#636897" stroke-dasharray="5 9 7 10" stroke-linecap="round" d="M26.5 807.5c-4.8333-.167-27.56405 2.5-22-13 8.5324-23.769 93.5-9 131 13"/>
</svg>
