<svg xmlns="http://www.w3.org/2000/svg" viewBox="0 0 227.98 265.17"><defs><style>.cls-1{fill:#ffd52c;}.cls-2{fill:#222435;}.cls-3,.cls-4{fill:none;stroke:#222435;stroke-miterlimit:10;}.cls-4{stroke-linecap:round;stroke-width:2px;}.cls-5{fill:#ffd52b;}.cls-6{fill:#c14001;}</style></defs><g id="Layer_2" data-name="Layer 2"><g id="right"><path class="cls-1" d="M10.89,0H207.81c19.41,0,17.29,25.85,17.29,25.85-3,177.67,2.8,229.43,2.8,229.43.91,13.68-6.48,9.18-6.48,9.18-6.18-4.34-3.75-16.82-3.75-16.82,7-22.33,2.5-21.81,2.5-21.81-4.09,6.44-4.47-4-4.47-4,1.21-42.72-30.93-76.89-30.93-76.89-50.33-38.61-134.58-29.19-161.9-55.33C-5,64.48.43,19,.43,19S2.18,1.11,10.89,0Z"/><g id="Layer_11_copy" data-name="Layer 11 copy"><path class="cls-2" d="M43.56,26.34,43,28.67l-.11,2.4L42,33.26l.56,3.05,1,2,1.06,1.92.49,2.16.37,2.16.15.44,0,2.54-1.15,2.17-1.69,1.64-2,1.2-2,1.08-2.17.79L34.54,55l-2.34.2-2.33.29-2.37-.17-2.35.34-1.57-1.42-1.09-1.65.34-2.55-.29-2.56L22.59,45l-.05-2.55-.73-2.57.26-2.55.22-2.55-.73-2.55-.06-2.56L22,27.09l-.22-2.56L21.5,22l.05-2.56.51-1.8,1.64-.77H26L28.28,16l2.34.11,2.25.78,2.38.09,2.13,1.11,1.78,1.62L41,21.26l1.53,1.91.92,2.33Zm-14.24-.8-.41,2.8,1.56,2.21,2.46.05,1.35-1.3.94-1.82L34.6,25l-1.59-2-2.95,0Zm0,15.18-.41,2.55.32,2.58.76,2,2,.75,2.75-.25L37,46.65,38.09,44l-.31-2.56-1.6-2-2.28-.65-2.23-.54-2,.48Z"/><polygon class="cls-2" points="48.93 20.62 48.85 23.18 48.72 25.75 48.83 28.32 49.05 30.89 48.78 33.45 48.7 36.01 48.47 38.56 48.9 41.15 48.99 43.72 48.65 46.27 49.02 48.86 48.88 51.43 48.5 53.98 49.64 54.91 51.92 54.85 54.21 55.08 56.49 55.32 58.78 55.45 61.07 55.45 63.37 56.1 65.66 56.09 66.19 55.11 66.56 52.4 66.28 49.66 65.52 48.85 63.33 49.1 61.08 49.06 58.92 49.49 56.7 49.66 56.09 49.06 56.06 46.63 55.74 44.16 55.95 41.74 56.22 39.32 56.9 38.77 59.4 38.55 61.91 38.34 64.42 38.05 65.24 37.19 65.08 34.14 64.31 33.1 61.8 33.39 59.29 32.66 56.78 32.92 56.27 31.94 56.13 28.83 56.29 25.73 56.98 25.16 59.32 24.96 61.55 25.68 63.78 26.38 66.13 26.19 66.75 25.64 67.26 23.36 67.14 21.07 66.21 20.23 63.85 20.05 61.48 20.07 59.12 19.88 56.75 19.59 54.38 20.18 52.01 20.1 49.64 19.62 48.93 20.62"/><polygon class="cls-3" points="48.93 20.62 48.85 23.18 48.72 25.75 48.83 28.32 49.05 30.89 48.78 33.45 48.7 36.01 48.47 38.56 48.9 41.15 48.99 43.72 48.65 46.27 49.02 48.86 48.88 51.43 48.5 53.98 49.64 54.91 51.92 54.85 54.21 55.08 56.49 55.32 58.78 55.45 61.07 55.45 63.37 56.1 65.66 56.09 66.19 55.11 66.56 52.4 66.28 49.66 65.52 48.85 63.33 49.1 61.08 49.06 58.92 49.49 56.7 49.66 56.09 49.06 56.06 46.63 55.74 44.16 55.95 41.74 56.22 39.32 56.9 38.77 59.4 38.55 61.91 38.34 64.42 38.05 65.24 37.19 65.08 34.14 64.31 33.1 61.8 33.39 59.29 32.66 56.78 32.92 56.27 31.94 56.13 28.83 56.29 25.73 56.98 25.16 59.32 24.96 61.55 25.68 63.78 26.38 66.13 26.19 66.75 25.64 67.26 23.36 67.14 21.07 66.21 20.23 63.85 20.05 61.48 20.07 59.12 19.88 56.75 19.59 54.38 20.18 52.01 20.1 49.64 19.62 48.93 20.62"/><polygon class="cls-2" points="71.63 19.15 71.55 21.7 71.54 24.25 71.07 26.79 71.54 29.36 71.02 31.89 71.27 34.46 70.97 37 71.58 39.58 71.67 42.13 71.08 44.66 71.32 47.23 70.96 49.77 71.48 52.35 71.04 54.89 71.1 57.45 72.28 58.46 74.84 58.49 77.4 59.26 79.96 58.91 82.52 59.45 85.08 59.58 87.65 59.81 90.22 59.65 91.14 58.78 91.28 55.69 91.16 52.58 90.09 51.75 87.6 51.79 85.15 52.06 82.67 52.15 80.32 53.04 78.92 51.72 79.4 48.99 79.08 46.17 79.33 43.41 79.86 40.67 80.41 39.6 82.49 39.25 84.6 39.22 86.72 39.21 88.82 39.06 89.47 38.1 89.94 34.68 88.7 33.45 85.9 33.81 83.11 33.24 80.31 33.45 79.2 32.04 79.31 29.7 79.74 27.36 79.67 25.01 80.52 24.38 83.05 24.84 85.6 25.16 88.19 25.13 90.71 25.75 91.94 24.8 92.11 22.2 92.03 19.6 90.83 18.33 88.52 18.46 86.2 18.31 83.89 18.41 81.57 18.16 79.25 18.57 76.93 17.82 74.61 18.2 72.28 17.7 71.63 19.15"/><polygon class="cls-3" points="71.63 19.15 71.55 21.7 71.54 24.25 71.07 26.79 71.54 29.36 71.02 31.89 71.27 34.46 70.97 37 71.58 39.58 71.67 42.13 71.08 44.66 71.32 47.23 70.96 49.77 71.48 52.35 71.04 54.89 71.1 57.45 72.28 58.46 74.84 58.49 77.4 59.26 79.96 58.91 82.52 59.45 85.08 59.58 87.65 59.81 90.22 59.65 91.14 58.78 91.28 55.69 91.16 52.58 90.09 51.75 87.6 51.79 85.15 52.06 82.67 52.15 80.32 53.04 78.92 51.72 79.4 48.99 79.08 46.17 79.33 43.41 79.86 40.67 80.41 39.6 82.49 39.25 84.6 39.22 86.72 39.21 88.82 39.06 89.47 38.1 89.94 34.68 88.7 33.45 85.9 33.81 83.11 33.24 80.31 33.45 79.2 32.04 79.31 29.7 79.74 27.36 79.67 25.01 80.52 24.38 83.05 24.84 85.6 25.16 88.19 25.13 90.71 25.75 91.94 24.8 92.11 22.2 92.03 19.6 90.83 18.33 88.52 18.46 86.2 18.31 83.89 18.41 81.57 18.16 79.25 18.57 76.93 17.82 74.61 18.2 72.28 17.7 71.63 19.15"/><polygon class="cls-2" points="143.2 60.75 141.49 60.23 139.22 59.14 138.14 56.4 138.27 53.7 138.22 50.99 138.34 48.28 138.18 45.56 138.02 42.84 138.02 40.12 138.03 37.41 139.08 34.62 141.49 33.53 143.2 33.93 145.61 34.86 146.29 37.74 146.44 40.47 146.26 43.2 146.64 45.95 146.69 48.69 146.33 51.41 146.47 54.16 146.26 56.89 145.58 59.67 143.2 60.75"/><polygon class="cls-2" points="144.27 31.46 142.35 31.46 140.42 31.37 138.19 28.68 138.16 28.14 139.2 25.4 141.56 24.33 143.13 24.41 145.53 25.53 146.4 28.39 146.45 28.93 144.27 31.46"/><line class="cls-4" x1="138.21" y1="21.36" x2="139.9" y2="24.97"/><line class="cls-4" x1="146.36" y1="21.52" x2="144.72" y2="25.11"/><polygon class="cls-5" points="146.81 43.87 144.58 43.76 142.35 43.65 140.12 43.66 137.92 43.43 137.81 39.72 140.11 39.98 142.34 40.01 144.58 40.05 146.86 40.12 146.81 43.87"/><polygon class="cls-5" points="146.8 53.42 144.58 53.39 142.35 53.2 140.12 52.98 137.89 52.93 137.89 49.35 140.11 49.47 142.34 49.48 144.58 49.75 146.88 49.76 146.8 53.42"/><path class="cls-2" d="M181.09,42.86l-.72,2.84L179,48.17l-.85,2.74-1.23,2.5-1.68,2.06-1.55,2.18-1.83,1.86-2.22,1.1L167.5,61.8l-2,1.54-2.41.39-2.41.15-2.27,1.17-2.46-.34H153.5l-1.7-2.36-.35-2.91.23-2.87L152,53.7l-.28-2.91,0-2.89V45l-.39-2.91.53-2.86-.55-2.92.72-2.86-.21-2.91-.19-2.9-.23-2.91.11-2.89,1.8-2.35,2.41-.33,2.43.29,2.41.19,2.4.4,2.45-.16,2.26,1.29,2.36.6,2.32.91,2,1.74,1.94,1.79,1.47,2.36,1.5,2.36,1.19,2.68.57,3,.2,3-.23,3Zm-11.41,7.28,1.22-2.2,1.42-2.17.4-2.74.15-2.72-.14-2.77-1.27-2.34-1.77-1.92-1.88-1.89-2.3-1-2.41.16-1.9,1.64-.48,2.7.55,2.83-.54,2.69-.09,2.76-.32,2.72.18,2.78-.4,2.72-.52,2.69,2.71,2.4,2.21-.93,2.07-1.31,1.59-2.06Z"/><polygon class="cls-2" points="184.4 24.69 184.76 27.72 184.62 30.73 184.78 33.75 184.78 36.77 184.71 39.78 184.43 42.79 185.02 45.83 184.88 48.84 184.38 51.83 184.81 54.87 184.9 57.9 184.54 60.9 185.02 63.96 186.17 66.09 188.45 65.81 190.72 66.56 193 66.69 195.28 66.19 197.56 66.52 199.84 67.07 202.12 67.19 204.4 66.9 205.55 65.3 205.53 62.75 205.55 60.2 204.21 58.67 201.78 58.43 199.48 59.08 197.14 59.51 194.76 59.61 192.99 57.73 193.02 54.28 193.5 50.88 193.65 47.43 194.75 45.45 197.5 45.65 200.24 45.85 202.91 44.86 204.29 43.48 204.19 41.18 202.8 39.23 200.11 39.51 197.41 39.12 194.72 38.6 193.28 37.02 193.35 34 193.41 30.98 195.05 28.87 197.46 29.92 199.98 29.75 202.37 31.04 204.86 31.25 206.48 29.31 206.27 25.25 205.06 23.57 202.7 23.56 200.34 23.65 197.99 23.26 195.63 23.09 193.26 22.87 190.9 23.35 188.54 22.64 186.17 22.85 184.4 24.69"/><polygon class="cls-3" points="184.4 24.69 184.76 27.72 184.62 30.73 184.78 33.75 184.78 36.77 184.71 39.78 184.43 42.79 185.02 45.83 184.88 48.84 184.38 51.83 184.81 54.87 184.9 57.9 184.54 60.9 185.02 63.96 186.17 66.09 188.45 65.81 190.72 66.56 193 66.69 195.28 66.19 197.56 66.52 199.84 67.07 202.12 67.19 204.4 66.9 205.55 65.3 205.53 62.75 205.55 60.2 204.21 58.67 201.78 58.43 199.48 59.08 197.14 59.51 194.76 59.61 192.99 57.73 193.02 54.28 193.5 50.88 193.65 47.43 194.75 45.45 197.5 45.65 200.24 45.85 202.91 44.86 204.29 43.48 204.19 41.18 202.8 39.23 200.11 39.51 197.41 39.12 194.72 38.6 193.28 37.02 193.35 34 193.41 30.98 195.05 28.87 197.46 29.92 199.98 29.75 202.37 31.04 204.86 31.25 206.48 29.31 206.27 25.25 205.06 23.57 202.7 23.56 200.34 23.65 197.99 23.26 195.63 23.09 193.26 22.87 190.9 23.35 188.54 22.64 186.17 22.85 184.4 24.69"/><polygon class="cls-2" points="132.68 33.35 134.38 31.45 135.1 28.81 135.34 27.14 133.67 25.11 131.73 23.43 129.87 21.7 127.9 20.14 125.71 19.05 123.42 18.18 121.01 18.17 118.59 18.53 116.58 20.09 114.56 21.69 113.28 24.14 113.28 26.98 113.64 29.74 114.74 32.27 115.97 34.7 117.38 37.01 118.76 39.38 120.34 41.6 121.65 43.79 123.42 45.52 124.56 47.81 125.52 50.21 125.17 52.76 123.52 54.41 121.14 54.56 118.59 54.14 116.64 52.1 115.34 49.5 113.34 49.45 111.17 51.04 108.74 52.12 108.77 54.3 109.84 56.75 111.81 58.28 113.4 60.39 115.5 61.72 117.86 62.07 120.07 62.84 122.37 63.45 124.67 63.25 126.81 62.29 128.89 61 130.68 59.3 132 57.08 132.73 54.48 133.31 51.65 132.5 48.84 131.41 46.2 130.24 43.58 128.64 41.53 127.08 39.47 125.85 37.09 124.33 35.01 122.46 33.25 121.59 30.71 122.34 28.56 124.65 27.68 126.89 29.49 129.02 31.35 130.71 33.75 132.68 33.35"/></g><path class="cls-6" d="M47.88,67.84a15.47,15.47,0,0,1,5-.29,8.27,8.27,0,0,1,4.86,1.85A4.6,4.6,0,0,1,59.61,73a5.05,5.05,0,0,1-1,3.14,8.78,8.78,0,0,1-3.19,2.2,21.94,21.94,0,0,1-2.58,0,8.23,8.23,0,0,0,2,3,11.63,11.63,0,0,0,3.59,2,1.72,1.72,0,0,1-.12,1.83,2.94,2.94,0,0,1-1.84,1.14,11.2,11.2,0,0,1-3.43-3.53,11.84,11.84,0,0,1-1.63-4.56l-.39,0q-.26,3.27-.7,7.13a2.71,2.71,0,0,1-2,.1,2.9,2.9,0,0,1-1.84-1,90,90,0,0,0,2.43-11l.21-3.81L48,69.51a1.57,1.57,0,0,1-.41-.94A.78.78,0,0,1,47.88,67.84Zm8.06,7a4.33,4.33,0,0,0,.42-2,3,3,0,0,0-1-2.16,4.44,4.44,0,0,0-2.87-1.11l-1.24,5.58c0,.18,0,.45-.06.8s0,.63-.06.81a12.44,12.44,0,0,0,3.44-.38A4.79,4.79,0,0,0,55.94,74.87Z"/><path class="cls-6" d="M69,83.58,65.74,87a5.59,5.59,0,0,1-3.59-1.73A5,5,0,0,1,61,81.82a8.26,8.26,0,0,1,2.16-5.66,6.19,6.19,0,0,1,5.28-2.38,8,8,0,0,1,2.24,2.93v0A6.73,6.73,0,0,1,71,74a6.43,6.43,0,0,1,2.41.23,1.94,1.94,0,0,1,1.15,1.13l-2,3.82q-.3,3.23-.3,8.41a2.67,2.67,0,0,1-2,.08,4.15,4.15,0,0,1-2-1.16l1-2.61Zm-3.61-5.32a6.85,6.85,0,0,0-1,3.57,3.13,3.13,0,0,0,1.11,2.71q1.44-1.19,4.09-3.42l.51-2.64a6.14,6.14,0,0,0-1.94-2.59A5.59,5.59,0,0,0,65.43,78.26Z"/><path class="cls-6" d="M87.51,86.9l.21.2a16.44,16.44,0,0,0,3.55-7.56l-.94-3.09a3.43,3.43,0,0,1,2-.86,2,2,0,0,1,1.66.69,23.13,23.13,0,0,1-5.38,13.3,4.3,4.3,0,0,1-2.44-.53,3.25,3.25,0,0,1-1.58-1.72,21.66,21.66,0,0,0,.62-5l-.18-.12a27.16,27.16,0,0,1-3.79,6.65,4.49,4.49,0,0,1-2.47-.52,3.39,3.39,0,0,1-1.6-1.62,35,35,0,0,0,.42-3.93,21.07,21.07,0,0,0-.23-3.43l-2-2.84a2.84,2.84,0,0,1,3.44-1.8q2.22,4,1.55,11.53l.25.1a23.32,23.32,0,0,0,3.65-6.9l-1.5-2.48a2.77,2.77,0,0,1,3.35-1.42A22,22,0,0,1,87.51,86.9Z"/><path class="cls-6" d="M110.75,73.18a4.5,4.5,0,0,1,2.4-.68,3.66,3.66,0,0,1,1.64.48l-1.94,7.84-.07.68,2.54.23,3.7-.31c0-.07.15-.88.39-2.44l.16-5.09a4.41,4.41,0,0,1,2.42-.68,3.34,3.34,0,0,1,1.63.48l-1.85,7.52,1.83-.16c.58.48.55,1.28-.1,2.4l-2,0c-.33,3.68-.57,6.71-.74,9.08a2.91,2.91,0,0,1-2.2.07,2.32,2.32,0,0,1-1.68-1.2c.76-2.93,1.37-5.59,1.8-8l-6.08,0c-.08.93-.2,2.37-.36,4.33s-.27,3.27-.33,3.91a2.93,2.93,0,0,1-2.19.07,2.45,2.45,0,0,1-1.7-1.2c.61-2.21,1.15-4.56,1.65-7l-1.48,0a1.92,1.92,0,0,1,.16-2.37l1.71.15q.26-1.53.48-3.06Z"/><path class="cls-6" d="M124.77,86.9a8.07,8.07,0,0,1,1-3.57,9.74,9.74,0,0,1,2.66-3.25,4.81,4.81,0,0,1,3.44-1.18,3.36,3.36,0,0,1,2.08,1.36,11.26,11.26,0,0,1,1.83,3,8.84,8.84,0,0,1,.74,3.26,6.61,6.61,0,0,1-1.06,3.38,9.05,9.05,0,0,1-2.77,2.93,4.92,4.92,0,0,1-3.24.93c-1-.1-2.09-.87-3.11-2.29A7.69,7.69,0,0,1,124.77,86.9Zm6.7-6A8.22,8.22,0,0,0,129,83.57a9.46,9.46,0,0,0-1.15,3.54,7.12,7.12,0,0,0,1.78,4.71,7.22,7.22,0,0,0,4-5.33A10.62,10.62,0,0,0,131.47,80.86Z"/><path class="cls-6" d="M150.4,84.46l-1,3.21q-.22,3.6-.07,7.73a2.42,2.42,0,0,1-1.93.12,3.76,3.76,0,0,1-1.9-1.22q.36-3.64,1.5-9.4a2.29,2.29,0,0,0-.93-1.56,12.86,12.86,0,0,0-3.9,3.36q-.22,3.36-.81,7.9a3.2,3.2,0,0,1-2.19.07,2.33,2.33,0,0,1-1.62-1.14c.88-2.87,1.59-5.69,2.15-8.45L139.08,81a3.51,3.51,0,0,1,3.49-.87,8,8,0,0,1,0,2.67L141.85,84l.23.35a14.32,14.32,0,0,1,4.39-3.88,4.28,4.28,0,0,1,2.6,1.46A6.12,6.12,0,0,1,150.4,84.46Z"/><path class="cls-6" d="M159.34,81.29a4.56,4.56,0,0,1,3.16,2.57,7.21,7.21,0,0,1,.31,4.44,26.15,26.15,0,0,1-7.44,2.38,5,5,0,0,0,2,3.51,8.88,8.88,0,0,0,4.25-1.89c.86,0,1.22.67,1.06,1.86a6.11,6.11,0,0,1-2.52,1.6,10.86,10.86,0,0,1-3.21.79,6.68,6.68,0,0,1-3.8-2.74A7.71,7.71,0,0,1,152,89.42a8.12,8.12,0,0,1,1.2-3.94A12.23,12.23,0,0,1,159.34,81.29Zm-4,7.69v.09a24.09,24.09,0,0,0,4.62-1.71,4,4,0,0,0-1.32-3.89l-.39.14a7.08,7.08,0,0,0-2.06,2.44A6.74,6.74,0,0,0,155.3,89Z"/><path class="cls-6" d="M164.84,92.69,166,89a65.46,65.46,0,0,0-.12-6.77,3.21,3.21,0,0,1,2.05.05,3.5,3.5,0,0,1,1.83,1.38,58.36,58.36,0,0,1-1.71,8.64,2.87,2.87,0,0,0,.58,1,3.93,3.93,0,0,0,1.16.79,14.84,14.84,0,0,0,3-3.23q.84-6.2,1.32-8a5.28,5.28,0,0,1,2.38.19,2.28,2.28,0,0,1,1.23,1.25L175.49,89q-1.16,7.59-1.77,15.18-1.49,2.2-5.37,1.64a10.24,10.24,0,0,1-2.72-2.69,7.87,7.87,0,0,1-1.34-3.08,3.13,3.13,0,0,1,1.6-1.47,1.67,1.67,0,0,1,1.7.33,8.56,8.56,0,0,0,1.83,4.47c.58.12,1,0,1.22-.28q.47-2.37,1.09-6.74l1-2.18-.3-.37a28,28,0,0,1-2.63,3C166.87,96,165.21,94.67,164.84,92.69Z"/></g></g></svg>