<svg width="16" height="12" viewBox="0 0 16 12" fill="none" xmlns="http://www.w3.org/2000/svg">
<path d="M16 10C16 10.5304 15.7891 11.039 15.4141 11.4141C15.039 11.7891 14.5304 12 14 12H2C1.46957 12 0.96101 11.7891 0.585938 11.4141C0.210866 11.039 1.01025e-06 10.5304 0 10V4.11816L8 8.11816L16 4.11816V10ZM14 0C14.5104 -7.56265e-05 15.0018 0.194677 15.373 0.544922C15.7443 0.895136 15.9674 1.37431 15.9971 1.88379L8 5.88184L0.00292969 1.88379C0.0325829 1.37431 0.255735 0.895135 0.626953 0.544922C0.998214 0.194702 1.48962 -9.36124e-05 2 0H14Z" fill="#FEFFF5"/>
</svg>
