<svg xmlns="http://www.w3.org/2000/svg" width="65" height="64" fill="none"><path fill="#E3C037" d="M19.268.193h26.718c10.178 0 18.448 8.27 18.448 18.448v26.718a18.45 18.45 0 0 1-18.448 18.448H19.268C9.089 63.807.82 55.537.82 45.36V18.641A18.45 18.45 0 0 1 19.268.193m-.636 6.361A11.45 11.45 0 0 0 7.18 18.004v27.991c0 6.33 5.12 11.45 11.45 11.45h27.99a11.45 11.45 0 0 0 11.451-11.45v-27.99c0-6.33-5.12-11.45-11.45-11.45zm30.693 4.771a3.976 3.976 0 1 1 0 7.952 3.976 3.976 0 0 1 0-7.952m-16.698 4.771a15.904 15.904 0 1 1 0 31.807 15.904 15.904 0 0 1 0-31.807m0 6.362a9.542 9.542 0 1 0 0 19.084 9.542 9.542 0 0 0 0-19.084"/></svg>