<svg xmlns="http://www.w3.org/2000/svg" width="47" height="46" fill="none">
  <path stroke="#FEFFF5" stroke-width="2" d="M23.5 45c-2.8891 0-5.7499-.569-8.419-1.6747a21.99954 21.99954 0 0 1-7.13735-4.769 21.99853 21.99853 0 0 1-4.769-7.1373A21.99958 21.99958 0 0 1 1.5 23c0-2.8891.56905-5.7499 1.67465-8.419A21.9997 21.9997 0 0 1 15.081 2.67465 21.99958 21.99958 0 0 1 23.5 1c5.8348 0 11.4305 2.31785 15.5563 6.44365C43.1821 11.5695 45.5 17.1652 45.5 23c0 5.8348-2.3179 11.4305-6.4437 15.5563S29.3348 45 23.5 45Zm0 0V19.8571c0-1.667.6622-3.2658 1.841-4.4446 1.1788-1.1788 2.7776-1.8411 4.4447-1.8411h1.5714M15.6429 26.1429h15.7142"/>
</svg>
