<svg xmlns="http://www.w3.org/2000/svg" width="45" height="44" fill="none">
  <path stroke="#FEFFF5" stroke-width="2" d="M4.6582 1h35.6836a3.1587 3.1587 0 0 1 2.1201.81738l.1133.10742c.5922.5922.9248 1.39592.9248 2.2334v35.6836c0 .8375-.3326 1.6412-.9248 2.2334-.5922.5922-1.3959.9248-2.2334.9248H4.6582a3.15883 3.15883 0 0 1-2.12011-.8174l-.11329-.1074C1.83261 41.483 1.5 40.6793 1.5 39.8418V4.1582c0-.78531.29266-1.54081.81738-2.12011l.10742-.11329C3.017 1.33261 3.82072 1 4.6582 1Z"/>
  <path stroke="#FEFFF5" stroke-width="2" d="M22.4977 12.9919a8.9978 8.9978 0 0 0-4.9942 1.5217 8.99737 8.99737 0 0 0-3.3085 4.0386 8.99714 8.99714 0 0 0-.509 5.1959 8.99698 8.99698 0 0 0 2.4618 4.604 8.99698 8.99698 0 0 0 4.604 2.4618 8.99714 8.99714 0 0 0 5.1959-.509 8.99737 8.99737 0 0 0 4.0386-3.3085 8.9978 8.9978 0 0 0 1.5217-4.9942c0-2.3897-.9493-4.6815-2.6391-6.3712-1.6897-1.6898-3.9815-2.6391-6.3712-2.6391Z"/>
  <path fill="#FEFFF5" d="M33.2343 13.5466c1.2256 0 2.2191-.9936 2.2191-2.2192 0-1.2256-.9935-2.21912-2.2191-2.21912s-2.2192.99352-2.2192 2.21912c0 1.2256.9936 2.2192 2.2192 2.2192Z"/>
</svg>
