<svg xmlns="http://www.w3.org/2000/svg" width="203" height="120" fill="none">
  <g filter="url(#a)">
    <path fill="#131F2F" d="M8.00002 2H25.4322v.52537h-3.7819a11.37218 11.37218 0 0 0 .7655 2.99996L33.1339 36.5756 43.852 5.25883a3.56091 3.56091 0 0 0 .2833-1.37053c-.0153-.97461-.9953-1.36293-2.5341-1.36293h-3.5063V2h11.8358v.52537c-3.8279 0-4.5935.76141-5.4586 3.19031L29.5587 49.2911h-1.2632L11.3609 2.52537H8.00002V2ZM62.8996 18.2483c7.7706 0 10.8329 3.6243 10.8329 8.7257.0205 1.6244-.3579 3.2292-1.1024 4.6751H57.5099v2.1548c0 8.9694 1.3474 14.2003 8.207 14.2003 1.8176.0092 3.5677-.6846 4.8805-1.9349 1.3129-1.2503 2.0857-2.9591 2.1552-4.7655h.5512c0 3.5634-3.0623 7.9871-10.343 7.9871-9.0261 0-14.0789-4.4847-14.0789-15.487 0-10.6369 5.2059-15.5556 14.0177-15.5556Zm-5.3591 12.9439h6.4921c2.5724 0 3.1848-1.7816 3.1848-4.6674 0-4.302-.5512-7.7435-4.2872-7.7435-4.3178-.0305-5.2978 4.6293-5.4203 12.3729l.0306.038ZM100.75 49.5426H83.7921v-.4187H87.62V10.2463h-3.8279v-.41879h13.0914V49.1239h3.8275l.039.4187ZM129.589 18.7511h-1.784v-.5101h8.2v.5101h-.865c-1.356 0-2.098 1.0279-2.956 3.2055l-10.235 27.3346h-1.11l-10.918-27.6467c-.765-2.0482-1.477-2.8858-2.832-2.8858h-.682v-.5101h15.664v.5025h-4.318c-.037 1.1012.175 2.1966.62 3.2055l6.967 16.8957 6.347-17.0556c.158-.4082.241-.8416.245-1.2791 0-1.0508-.796-1.7665-2.343-1.7665ZM156.522 18.751c7.801 0 10.879 3.571 10.879 8.5963a9.55945 9.55945 0 0 1-1.11 4.5684h-15.128v2.1244c0 8.8399 1.355 13.9871 8.238 13.9871 1.806.0299 3.554-.6395 4.874-1.8669 1.32-1.2274 2.108-2.9169 2.2-4.7117h.558c0 3.5101-3.062 7.873-10.388 7.873-9.095 0-14.141-4.4238-14.141-15.2282-.038-10.5075 5.191-15.3424 14.018-15.3424Zm-5.359 12.7079h6.515c2.588 0 3.2-1.7589 3.2-4.5685 0-4.2334-.551-7.6141-4.302-7.6141-4.334-.0532-5.321 4.5533-5.413 12.1826ZM171.275 18.2258h.88c4.777 0 8.544-2.2842 11.637-7.6141h.605v7.6141h6.576v.5254h-6.599V42.134c0 3.5787 1.01 5.7791 4.042 5.7791.535.055 1.075-.0469 1.552-.2931.477-.2462.872-.6261 1.135-1.0926l.406.1903c-1.08 1.8807-3.767 2.5736-7.533 2.5736-4.915 0-8.483-1.5228-8.483-6.6547V18.7512h-4.241l.023-.5254ZM25.5241 97.8236H8.00002v-.4873h4.23368V54.6288H8.00002v-.4949H25.5241v.4949h-4.2337v42.7075h4.2337v.4873Zm18.9097 5.6954c-7.0203-2.962-9.3859-6.9137-11.4377-11.6801l-4.2336-10.3323c-1.7838-4.2106-4.6854-6.4111-6.8443-6.5938l7.051-8.2994c1.1981-1.5281 2.7057-2.7888 4.425-3.7004l2.2125-1.3782-7.3725 8.5506c2.9705-3.0456 6.9438 3.4797 9.5238 9.8984l4.0346 9.8983c3.9198 10.6599 10.8482 14.6119 20.6706 15.8829-.0383 0-11.8664.35-18.0294-2.246Z"/>
    <path fill="#131F2F" d="M62.356 66.7806c8.1917 0 11.4148 3.6243 11.4148 8.7106.0195 1.6291-.3811 3.2361-1.1637 4.6674H56.6448v2.1472c0 8.9618 1.4163 14.1774 8.6434 14.1774 4.3791 0 7.4108-3.4416 7.4108-6.6928h.5818c0 3.5634-3.2231 7.9796-10.8942 7.9796-9.5467 0-14.8369-4.4771-14.8369-15.4642 0-10.6141 5.4816-15.5252 14.8063-15.5252Zm-5.7112 12.8831h6.8366c2.7025 0 3.3532-1.7741 3.3532-4.6598 0-4.2944-.5818-7.7283-4.5169-7.7283-4.5169 0-5.5427 4.6598-5.6729 12.3881ZM94.2577 97.6942H78.3413v-.5178h3.4604V68.2429h-3.4604v-.4949h9.7535l1.3856 8.9618h.1838c.444-7.5456 3.8279-9.6395 7.3036-9.6395 3.4762 0 4.9682 2.2233 4.9682 4.3857 0 4.203-3.8275 6.4872-7.487 6.7918l-.1913-.1218c.6985-1.7138 1.0447-3.5494 1.0182-5.3984 0-1.9721-.8192-3.5863-1.5771-3.8908-.8804.1827-3.2078 1.9796-3.5217 8.8323v19.5073h4.0882l-.0076.5178ZM121.015 97.694h-15.067v-.5178h3.422V68.1589h-3.422v-.4949h11.147l.436 5.8781c1.991-4.7665 5.604-6.4949 9.777-6.4949 6.346 0 8.903 2.2843 8.903 9.7765v20.3525h3.422v.4949h-15.066v-.4949h3.422V72.4913c0-2.9086-.681-4.3933-3.062-4.3933-2.496 0-5.796 2.1624-7.35 6.8527v22.2255h3.422l.016.5178ZM157.625 67.0472c8.084 0 11.269 3.5787 11.269 8.6116.02 1.6094-.373 3.1973-1.141 4.6141h-15.732v2.1244c0 8.8628 1.401 14.0251 8.536 14.0251 4.325 0 7.319-3.4035 7.319-6.6166h.574c0 3.5177-3.185 7.8882-10.764 7.8882-9.424 0-14.646-4.4314-14.646-15.2967 0-10.4999 5.413-15.3501 14.585-15.3501Zm-5.604 12.7384h6.752c2.672 0 3.307-1.7588 3.307-4.5684 0-4.2487-.574-7.6141-4.455-7.6141-4.464-.0762-5.482 4.538-5.604 12.1825ZM188.401 97.7702h-15.802v-.3959h3.591V61.4434h-3.591v-.3883h12.249v36.3192h3.591l-.038.3959Z"/>
    <path fill="#FFBD4A" d="M30.6075 64.7706c9.0485-8.1368 20.813-12.6411 33.0117-12.6394 20.5022 0 21.2831 2.1015 37.0538 2.1015 18.42 0 22.24-8.9466 46.563-1.302 24.904 7.8273 30.064 3.4035 36.403.1142 3.391-1.7665 7.969-3.807 11.361-4.4466-2.95 1.2806-5.736 2.9062-8.299 4.8425-5.857 4.3324-7.893 5.0482-12.701 6.236-8.084 2.0025-17.049.5482-28.74-1.9873-9.592-2.071-16.015-2.0025-20.44-1.0355-5.75 1.2563-12.15 3.6547-23.733 4.0811-7.036.2589-14.2095 0-28.3268-3.3121-9.4395-2.2309-26.887-3.1065-42.1527 7.3476Z"/>
  </g>
  <defs>
    <filter id="a" width="203" height="119.781" x=".00002" y="0" color-interpolation-filters="sRGB" filterUnits="userSpaceOnUse">
      <feFlood flood-opacity="0" result="BackgroundImageFix"/>
      <feColorMatrix in="SourceAlpha" result="hardAlpha" values="0 0 0 0 0 0 0 0 0 0 0 0 0 0 0 0 0 0 127 0"/>
      <feOffset dy="6"/>
      <feGaussianBlur stdDeviation="4"/>
      <feComposite in2="hardAlpha" operator="out"/>
      <feColorMatrix values="0 0 0 0 0 0 0 0 0 0 0 0 0 0 0 0 0 0 0.2 0"/>
      <feBlend in2="BackgroundImageFix" result="effect1_dropShadow_47_9"/>
      <feColorMatrix in="SourceAlpha" result="hardAlpha" values="0 0 0 0 0 0 0 0 0 0 0 0 0 0 0 0 0 0 127 0"/>
      <feOffset dy="3"/>
      <feGaussianBlur stdDeviation="1.75"/>
      <feComposite in2="hardAlpha" operator="out"/>
      <feColorMatrix values="0 0 0 0 0 0 0 0 0 0 0 0 0 0 0 0 0 0 0.2 0"/>
      <feBlend in2="effect1_dropShadow_47_9" result="effect2_dropShadow_47_9"/>
      <feBlend in="SourceGraphic" in2="effect2_dropShadow_47_9" result="shape"/>
    </filter>
  </defs>
</svg>
