<svg xmlns="http://www.w3.org/2000/svg" width="28" height="36" fill="none"><path fill="#FEFFF5" d="M13.999.004c3.5.087 6.838 1.526 9.32 4.023 2.56 2.579 4 6.076 4 9.722l-.011.606c-.226 6.247-3.89 11.775-6.98 15.355l-.764.858A45.874 45.874 0 0 1 13.659 36l-.9-.712a45.88 45.88 0 0 1-5.004-4.725l-.764-.86C3.901 26.13.237 20.602.011 14.355L0 13.75c0-3.532 1.35-6.925 3.764-9.478L4 4.027A13.615 13.615 0 0 1 13.659 0l.34.004Zm-.34 1.596a12.01 12.01 0 0 0-8.09 3.14l-.433.414A12.196 12.196 0 0 0 1.6 13.75c0 5.905 3.485 11.303 6.601 14.906l.736.83a44.278 44.278 0 0 0 4.723 4.471 44.294 44.294 0 0 0 5.46-5.295c3.115-3.611 6.599-9.008 6.599-14.912a12.2 12.2 0 0 0-3.123-8.158l-.412-.437A12.016 12.016 0 0 0 13.659 1.6Zm0 6.81a5.24 5.24 0 1 1 0 10.48 5.24 5.24 0 0 1 0-10.48Zm0 1.6a3.64 3.64 0 1 0 .001 7.28 3.64 3.64 0 0 0 0-7.28Z"/></svg>