<svg xmlns="http://www.w3.org/2000/svg" width="195" height="112" fill="none"><g filter="url(#a)"><path fill="#131F2F" d="M4 1h17.432v.525H17.65c.117 1.03.375 2.04.766 3l10.718 31.05L39.852 4.26c.184-.434.28-.9.283-1.37-.015-.975-.995-1.364-2.534-1.364h-3.506V1H45.93v.525c-3.828 0-4.594.762-5.459 3.19L25.56 48.292h-1.264L7.361 1.525H4V1ZM58.9 17.248c7.77 0 10.833 3.625 10.833 8.726a9.938 9.938 0 0 1-1.103 4.675H53.51v2.155c0 8.97 1.347 14.2 8.207 14.2a7.025 7.025 0 0 0 4.88-1.935 6.95 6.95 0 0 0 2.156-4.765h.55c0 3.563-3.062 7.987-10.342 7.987-9.026 0-14.08-4.485-14.08-15.487 0-10.637 5.207-15.556 14.019-15.556Zm-5.36 12.944h6.493c2.572 0 3.184-1.781 3.184-4.667 0-4.302-.55-7.744-4.287-7.744-4.318-.03-5.298 4.63-5.42 12.373l.03.038ZM96.75 48.543H79.791v-.42h3.828V9.247h-3.828v-.418h13.091v39.296h3.828l.038.419ZM125.589 17.751h-1.784v-.51h8.2v.51h-.865c-1.355 0-2.098 1.028-2.956 3.206L117.949 48.29h-1.11l-10.918-27.646c-.765-2.049-1.477-2.886-2.832-2.886h-.682v-.51h15.664v.502h-4.318a7.332 7.332 0 0 0 .62 3.206l6.967 16.895 6.347-17.055c.158-.409.241-.842.245-1.28 0-1.05-.796-1.766-2.343-1.766ZM152.522 17.751c7.801 0 10.879 3.571 10.879 8.596a9.56 9.56 0 0 1-1.11 4.569h-15.128v2.124c0 8.84 1.355 13.987 8.238 13.987a6.99 6.99 0 0 0 4.874-1.867 6.912 6.912 0 0 0 2.2-4.711h.558c0 3.51-3.062 7.873-10.388 7.873-9.095 0-14.141-4.424-14.141-15.229-.038-10.507 5.191-15.342 14.018-15.342Zm-5.359 12.708h6.515c2.588 0 3.2-1.759 3.2-4.569 0-4.233-.551-7.614-4.302-7.614-4.333-.053-5.321 4.554-5.413 12.183ZM167.275 17.226h.88c4.777 0 8.544-2.284 11.637-7.614h.605v7.614h6.576v.525h-6.599v23.383c0 3.579 1.01 5.78 4.042 5.78a2.77 2.77 0 0 0 1.552-.294 2.751 2.751 0 0 0 1.135-1.093l.406.19c-1.08 1.881-3.767 2.574-7.533 2.574-4.915 0-8.483-1.522-8.483-6.654V17.75h-4.241l.023-.525ZM21.524 96.823H4v-.487h4.234V53.63H4v-.495h17.524v.495H17.29v42.707h4.234v.487Zm18.91 5.696c-7.02-2.962-9.386-6.914-11.438-11.68l-4.233-10.332c-1.784-4.211-4.686-6.412-6.845-6.594l7.051-8.3a13.893 13.893 0 0 1 4.425-3.7l2.213-1.378-7.373 8.55c2.97-3.045 6.944 3.48 9.524 9.899l4.035 9.898c3.92 10.66 10.848 14.611 20.67 15.883-.038 0-11.866.35-18.03-2.246Z"/><path fill="#131F2F" d="M58.356 65.78c8.192 0 11.415 3.625 11.415 8.711a9.491 9.491 0 0 1-1.164 4.668H52.645v2.147c0 8.962 1.416 14.177 8.643 14.177 4.38 0 7.411-3.441 7.411-6.693h.582c0 3.564-3.223 7.98-10.894 7.98-9.547 0-14.837-4.477-14.837-15.464 0-10.614 5.481-15.525 14.806-15.525Zm-5.711 12.884h6.836c2.703 0 3.354-1.774 3.354-4.66 0-4.294-.582-7.728-4.517-7.728-4.517 0-5.543 4.66-5.673 12.388ZM90.258 96.694H74.34v-.518h3.46V67.243h-3.46v-.495h9.754l1.386 8.962h.183c.444-7.546 3.828-9.64 7.304-9.64 3.475 0 4.968 2.224 4.968 4.386 0 4.203-3.828 6.487-7.487 6.792l-.191-.122a13.776 13.776 0 0 0 1.018-5.398c0-1.972-.82-3.587-1.577-3.891-.88.182-3.208 1.98-3.522 8.832v19.507h4.088l-.007.518ZM117.015 96.694h-15.067v-.518h3.422V67.16h-3.422v-.495h11.147l.436 5.878c1.991-4.766 5.604-6.495 9.777-6.495 6.346 0 8.903 2.285 8.903 9.777v20.352h3.422v.495h-15.066v-.495h3.422V71.491c0-2.908-.681-4.393-3.062-4.393-2.496 0-5.796 2.162-7.35 6.853v22.225h3.422l.016.518ZM153.625 66.047c8.084 0 11.269 3.579 11.269 8.612a9.435 9.435 0 0 1-1.141 4.614h-15.732v2.124c0 8.863 1.401 14.025 8.536 14.025 4.325 0 7.319-3.403 7.319-6.616h.574c0 3.517-3.185 7.888-10.764 7.888-9.424 0-14.646-4.431-14.646-15.297 0-10.5 5.413-15.35 14.585-15.35Zm-5.604 12.739h6.752c2.672 0 3.307-1.76 3.307-4.569 0-4.248-.574-7.614-4.455-7.614-4.464-.076-5.482 4.538-5.604 12.183ZM184.401 96.77h-15.802v-.396h3.591v-35.93h-3.591v-.389h12.249v36.32h3.591l-.038.395Z"/><path fill="#FFBD4A" d="M26.607 63.77A49.364 49.364 0 0 1 59.62 51.132c20.502 0 21.283 2.102 37.054 2.102 18.42 0 22.24-8.947 46.563-1.302 24.904 7.827 30.064 3.403 36.403.114 3.391-1.767 7.969-3.807 11.361-4.447a40.563 40.563 0 0 0-8.299 4.843c-5.857 4.332-7.893 5.048-12.701 6.236-8.084 2.002-17.049.548-28.74-1.988-9.592-2.07-16.016-2.002-20.441-1.035-5.749 1.256-12.149 3.655-23.733 4.081-7.035.259-14.209 0-28.326-3.312-9.44-2.231-26.887-3.107-42.153 7.347Z"/></g><defs><filter id="a" width="194" height="110.781" x=".5" y=".5" color-interpolation-filters="sRGB" filterUnits="userSpaceOnUse"><feFlood flood-opacity="0" result="BackgroundImageFix"/><feColorMatrix in="SourceAlpha" result="hardAlpha" values="0 0 0 0 0 0 0 0 0 0 0 0 0 0 0 0 0 0 127 0"/><feOffset dy="3"/><feGaussianBlur stdDeviation="1.75"/><feComposite in2="hardAlpha" operator="out"/><feColorMatrix values="0 0 0 0 0 0 0 0 0 0 0 0 0 0 0 0 0 0 0.2 0"/><feBlend in2="BackgroundImageFix" result="effect1_dropShadow_47_9"/><feBlend in="SourceGraphic" in2="effect1_dropShadow_47_9" result="shape"/></filter></defs></svg>